<?xml version="1.0" encoding="UTF-8" standalone="no"?>
<!DOCTYPE svg PUBLIC "-//W3C//DTD SVG 1.1//EN"
 "http://www.w3.org/Graphics/SVG/1.1/DTD/svg11.dtd">
<!-- Generated by graphviz version 8.1.0 (0)
 -->
<!-- Pages: 1 -->
<svg width="321pt" height="204pt"
 viewBox="0.00 0.00 321.43 204.43" xmlns="http://www.w3.org/2000/svg" xmlns:xlink="http://www.w3.org/1999/xlink">
<g id="graph0" class="graph" transform="scale(1 1) rotate(0) translate(4 200.43)">
<polygon fill="white" stroke="none" points="-4,4 -4,-200.43 317.43,-200.43 317.43,4 -4,4"/>
<!-- a -->
<g id="node1" class="node">
<title>a</title>
<ellipse fill="none" stroke="black" cx="27" cy="-98.21" rx="27" ry="18"/>
<text text-anchor="middle" x="27" y="-93.54" font-family="Times,serif" font-size="14.00">a</text>
</g>
<!-- b -->
<g id="node2" class="node">
<title>b</title>
<ellipse fill="none" stroke="black" cx="107.21" cy="-178.43" rx="27" ry="18"/>
<text text-anchor="middle" x="107.21" y="-173.75" font-family="Times,serif" font-size="14.00">b</text>
</g>
<!-- a&#45;&#45;b -->
<g id="edge1" class="edge">
<title>a&#45;&#45;b</title>
<path fill="none" stroke="black" d="M42.09,-113.3C56.34,-127.55 77.6,-148.82 91.92,-163.14"/>
</g>
<!-- c -->
<g id="node3" class="node">
<title>c</title>
<ellipse fill="none" stroke="black" cx="187.43" cy="-98.21" rx="27" ry="18"/>
<text text-anchor="middle" x="187.43" y="-93.54" font-family="Times,serif" font-size="14.00">c</text>
</g>
<!-- a&#45;&#45;c -->
<g id="edge3" class="edge">
<title>a&#45;&#45;c</title>
<path fill="none" stroke="black" d="M54.21,-98.21C83.72,-98.21 130.53,-98.21 160.08,-98.21"/>
</g>
<!-- b&#45;&#45;c -->
<g id="edge2" class="edge">
<title>b&#45;&#45;c</title>
<path fill="none" stroke="black" d="M122.3,-163.34C136.55,-149.09 157.82,-127.82 172.14,-113.51"/>
</g>
<!-- d -->
<g id="node4" class="node">
<title>d</title>
<ellipse fill="none" stroke="black" cx="286.43" cy="-98.21" rx="27" ry="18"/>
<text text-anchor="middle" x="286.43" y="-93.54" font-family="Times,serif" font-size="14.00">d</text>
</g>
<!-- d&#45;&#45;c -->
<g id="edge4" class="edge">
<title>d&#45;&#45;c</title>
<path fill="none" stroke="black" d="M259.11,-98.21C245.26,-98.21 228.49,-98.21 214.65,-98.21"/>
</g>
<!-- e -->
<g id="node5" class="node">
<title>e</title>
<ellipse fill="none" stroke="black" cx="107.21" cy="-18" rx="27" ry="18"/>
<text text-anchor="middle" x="107.21" y="-13.32" font-family="Times,serif" font-size="14.00">e</text>
</g>
<!-- e&#45;&#45;a -->
<g id="edge6" class="edge">
<title>e&#45;&#45;a</title>
<path fill="none" stroke="black" d="M92.13,-33.09C77.88,-47.34 56.61,-68.6 42.29,-82.92"/>
</g>
<!-- e&#45;&#45;c -->
<g id="edge5" class="edge">
<title>e&#45;&#45;c</title>
<path fill="none" stroke="black" d="M122.3,-33.09C136.55,-47.34 157.82,-68.6 172.14,-82.92"/>
</g>
</g>
</svg>
