<?xml version="1.0" encoding="UTF-8" standalone="no"?>
<!DOCTYPE svg PUBLIC "-//W3C//DTD SVG 1.1//EN"
 "http://www.w3.org/Graphics/SVG/1.1/DTD/svg11.dtd">
<!-- Generated by graphviz version 8.1.0 (0)
 -->
<!-- Pages: 1 -->
<svg width="222pt" height="204pt"
 viewBox="0.00 0.00 222.43 204.43" xmlns="http://www.w3.org/2000/svg" xmlns:xlink="http://www.w3.org/1999/xlink">
<g id="graph0" class="graph" transform="scale(1 1) rotate(0) translate(4 200.43)">
<polygon fill="white" stroke="none" points="-4,4 -4,-200.43 218.43,-200.43 218.43,4 -4,4"/>
<!-- a -->
<g id="node1" class="node">
<title>a</title>
<ellipse fill="none" stroke="black" cx="107.21" cy="-18" rx="27" ry="18"/>
<text text-anchor="middle" x="107.21" y="-13.32" font-family="Times,serif" font-size="14.00">a</text>
</g>
<!-- b -->
<g id="node2" class="node">
<title>b</title>
<ellipse fill="none" stroke="black" cx="27" cy="-98.21" rx="27" ry="18"/>
<text text-anchor="middle" x="27" y="-93.54" font-family="Times,serif" font-size="14.00">b</text>
</g>
<!-- a&#45;&gt;b -->
<g id="edge1" class="edge">
<title>a&#45;&gt;b</title>
<path fill="none" stroke="black" d="M92.13,-33.09C80.21,-45 63.4,-61.82 49.84,-75.38"/>
<polygon fill="black" stroke="black" points="47.89,-72.38 43.29,-81.92 52.84,-77.33 47.89,-72.38"/>
</g>
<!-- c -->
<g id="node3" class="node">
<title>c</title>
<ellipse fill="none" stroke="black" cx="107.21" cy="-178.43" rx="27" ry="18"/>
<text text-anchor="middle" x="107.21" y="-173.75" font-family="Times,serif" font-size="14.00">c</text>
</g>
<!-- b&#45;&gt;c -->
<g id="edge2" class="edge">
<title>b&#45;&gt;c</title>
<path fill="none" stroke="black" d="M42.09,-113.3C54,-125.21 70.82,-142.03 84.38,-155.59"/>
<polygon fill="black" stroke="black" points="81.38,-157.54 90.92,-162.14 86.33,-152.59 81.38,-157.54"/>
</g>
<!-- d -->
<g id="node4" class="node">
<title>d</title>
<ellipse fill="none" stroke="black" cx="187.43" cy="-98.21" rx="27" ry="18"/>
<text text-anchor="middle" x="187.43" y="-93.54" font-family="Times,serif" font-size="14.00">d</text>
</g>
<!-- c&#45;&gt;d -->
<g id="edge3" class="edge">
<title>c&#45;&gt;d</title>
<path fill="none" stroke="black" d="M122.3,-163.34C134.21,-151.43 151.03,-134.61 164.59,-121.05"/>
<polygon fill="black" stroke="black" points="166.54,-124.05 171.14,-114.51 161.59,-119.1 166.54,-124.05"/>
</g>
<!-- d&#45;&gt;a -->
<g id="edge4" class="edge">
<title>d&#45;&gt;a</title>
<path fill="none" stroke="black" d="M172.34,-83.13C160.43,-71.21 143.61,-54.4 130.05,-40.84"/>
<polygon fill="black" stroke="black" points="133.05,-38.89 123.51,-34.29 128.1,-43.84 133.05,-38.89"/>
</g>
</g>
</svg>
