<?xml version="1.0" encoding="UTF-8" standalone="no"?>
<!DOCTYPE svg PUBLIC "-//W3C//DTD SVG 1.1//EN"
 "http://www.w3.org/Graphics/SVG/1.1/DTD/svg11.dtd">
<!-- Generated by graphviz version 8.1.0 (0)
 -->
<!-- Pages: 1 -->
<svg width="222pt" height="204pt"
 viewBox="0.00 0.00 222.43 204.43" xmlns="http://www.w3.org/2000/svg" xmlns:xlink="http://www.w3.org/1999/xlink">
<g id="graph0" class="graph" transform="scale(1 1) rotate(0) translate(4 200.43)">
<polygon fill="white" stroke="none" points="-4,4 -4,-200.43 218.43,-200.43 218.43,4 -4,4"/>
<!-- a -->
<g id="node1" class="node">
<title>a</title>
<ellipse fill="none" stroke="black" cx="107.21" cy="-18" rx="27" ry="18"/>
<text text-anchor="middle" x="107.21" y="-13.32" font-family="Times,serif" font-size="14.00">a</text>
</g>
<!-- b -->
<g id="node2" class="node">
<title>b</title>
<ellipse fill="none" stroke="black" cx="27" cy="-98.21" rx="27" ry="18"/>
<text text-anchor="middle" x="27" y="-93.54" font-family="Times,serif" font-size="14.00">b</text>
</g>
<!-- a&#45;&gt;b -->
<g id="edge1" class="edge">
<title>a&#45;&gt;b</title>
<path fill="none" stroke="black" d="M92.13,-33.09C80.21,-45 63.4,-61.82 49.84,-75.38"/>
<polygon fill="black" stroke="black" points="47.89,-72.38 43.29,-81.92 52.84,-77.33 47.89,-72.38"/>
<text text-anchor="middle" x="59.73" y="-58.18" font-family="Times,serif" font-size="14.00">0.2</text>
</g>
<!-- c -->
<g id="node3" class="node">
<title>c</title>
<ellipse fill="none" stroke="black" cx="187.43" cy="-98.21" rx="27" ry="18"/>
<text text-anchor="middle" x="187.43" y="-93.54" font-family="Times,serif" font-size="14.00">c</text>
</g>
<!-- a&#45;&gt;c -->
<g id="edge2" class="edge">
<title>a&#45;&gt;c</title>
<path fill="none" stroke="black" d="M122.3,-33.09C134.21,-45 151.03,-61.82 164.59,-75.38"/>
<polygon fill="black" stroke="black" points="161.59,-77.33 171.14,-81.92 166.54,-72.38 161.59,-77.33"/>
<text text-anchor="middle" x="132.2" y="-58.18" font-family="Times,serif" font-size="14.00">0.4</text>
</g>
<!-- c&#45;&gt;b -->
<g id="edge3" class="edge">
<title>c&#45;&gt;b</title>
<path fill="none" stroke="black" d="M160.21,-98.21C134.05,-98.21 94.28,-98.21 65.01,-98.21"/>
<polygon fill="black" stroke="black" points="65.35,-94.71 55.35,-98.21 65.35,-101.71 65.35,-94.71"/>
<text text-anchor="middle" x="101.36" y="-102.16" font-family="Times,serif" font-size="14.00">0.6</text>
</g>
<!-- e -->
<g id="node4" class="node">
<title>e</title>
<ellipse fill="none" stroke="black" cx="107.21" cy="-178.43" rx="27" ry="18"/>
<text text-anchor="middle" x="107.21" y="-173.75" font-family="Times,serif" font-size="14.00">e</text>
</g>
<!-- c&#45;&gt;e -->
<g id="edge4" class="edge">
<title>c&#45;&gt;e</title>
<path fill="none" stroke="black" d="M172.34,-113.3C160.43,-125.21 143.61,-142.03 130.05,-155.59"/>
<polygon fill="black" stroke="black" points="128.1,-152.59 123.51,-162.14 133.05,-157.54 128.1,-152.59"/>
<text text-anchor="middle" x="139.95" y="-138.4" font-family="Times,serif" font-size="14.00">0.6</text>
</g>
<!-- e&#45;&gt;b -->
<g id="edge6" class="edge">
<title>e&#45;&gt;b</title>
<path fill="none" stroke="black" d="M92.13,-163.34C80.21,-151.43 63.4,-134.61 49.84,-121.05"/>
<polygon fill="black" stroke="black" points="52.84,-119.1 43.29,-114.51 47.89,-124.05 52.84,-119.1"/>
<text text-anchor="middle" x="59.73" y="-146.15" font-family="Times,serif" font-size="14.00">0.7</text>
</g>
<!-- e&#45;&gt;e -->
<g id="edge5" class="edge">
<title>e&#45;&gt;e</title>
<path fill="none" stroke="black" d="M132.66,-185.12C143.24,-185.58 152.21,-183.35 152.21,-178.43 152.21,-175.35 148.71,-173.33 143.5,-172.35"/>
<polygon fill="black" stroke="black" points="143.84,-168.81 133.66,-171.74 143.44,-175.8 143.84,-168.81"/>
<text text-anchor="middle" x="163.46" y="-173.75" font-family="Times,serif" font-size="14.00">0.1</text>
</g>
</g>
</svg>
