<?xml version="1.0" encoding="UTF-8" standalone="no"?>
<!DOCTYPE svg PUBLIC "-//W3C//DTD SVG 1.1//EN"
 "http://www.w3.org/Graphics/SVG/1.1/DTD/svg11.dtd">
<!-- Generated by graphviz version 8.1.0 (0)
 -->
<!-- Pages: 1 -->
<svg width="321pt" height="204pt"
 viewBox="0.00 0.00 321.43 204.43" xmlns="http://www.w3.org/2000/svg" xmlns:xlink="http://www.w3.org/1999/xlink">
<g id="graph0" class="graph" transform="scale(1 1) rotate(0) translate(4 200.43)">
<polygon fill="white" stroke="none" points="-4,4 -4,-200.43 317.43,-200.43 317.43,4 -4,4"/>
<!-- a -->
<g id="node1" class="node">
<title>a</title>
<ellipse fill="none" stroke="black" cx="27" cy="-98.21" rx="27" ry="18"/>
<text text-anchor="middle" x="27" y="-93.54" font-family="Times,serif" font-size="14.00">a</text>
</g>
<!-- b -->
<g id="node2" class="node">
<title>b</title>
<ellipse fill="none" stroke="black" cx="107.21" cy="-178.43" rx="27" ry="18"/>
<text text-anchor="middle" x="107.21" y="-173.75" font-family="Times,serif" font-size="14.00">b</text>
</g>
<!-- a&#45;&gt;b -->
<g id="edge1" class="edge">
<title>a&#45;&gt;b</title>
<path fill="none" stroke="black" d="M42.09,-113.3C54,-125.21 70.82,-142.03 84.38,-155.59"/>
<polygon fill="black" stroke="black" points="81.38,-157.54 90.92,-162.14 86.33,-152.59 81.38,-157.54"/>
</g>
<!-- f -->
<g id="node5" class="node">
<title>f</title>
<ellipse fill="none" stroke="black" cx="107.21" cy="-18" rx="27" ry="18"/>
<text text-anchor="middle" x="107.21" y="-13.32" font-family="Times,serif" font-size="14.00">f</text>
</g>
<!-- a&#45;&gt;f -->
<g id="edge4" class="edge">
<title>a&#45;&gt;f</title>
<path fill="none" stroke="black" d="M42.09,-83.13C54,-71.21 70.82,-54.4 84.38,-40.84"/>
<polygon fill="black" stroke="black" points="86.33,-43.84 90.92,-34.29 81.38,-38.89 86.33,-43.84"/>
</g>
<!-- c -->
<g id="node3" class="node">
<title>c</title>
<ellipse fill="none" stroke="black" cx="187.43" cy="-98.21" rx="27" ry="18"/>
<text text-anchor="middle" x="187.43" y="-93.54" font-family="Times,serif" font-size="14.00">c</text>
</g>
<!-- b&#45;&gt;c -->
<g id="edge2" class="edge">
<title>b&#45;&gt;c</title>
<path fill="none" stroke="black" d="M122.3,-163.34C134.21,-151.43 151.03,-134.61 164.59,-121.05"/>
<polygon fill="black" stroke="black" points="166.54,-124.05 171.14,-114.51 161.59,-119.1 166.54,-124.05"/>
</g>
<!-- d -->
<g id="node4" class="node">
<title>d</title>
<ellipse fill="none" stroke="black" cx="286.43" cy="-98.21" rx="27" ry="18"/>
<text text-anchor="middle" x="286.43" y="-93.54" font-family="Times,serif" font-size="14.00">d</text>
</g>
<!-- c&#45;&gt;d -->
<g id="edge3" class="edge">
<title>c&#45;&gt;d</title>
<path fill="none" stroke="black" d="M214.74,-98.21C225.13,-98.21 237.16,-98.21 248.37,-98.21"/>
<polygon fill="black" stroke="black" points="248.2,-101.71 258.2,-98.21 248.2,-94.71 248.2,-101.71"/>
</g>
<!-- f&#45;&gt;c -->
<g id="edge5" class="edge">
<title>f&#45;&gt;c</title>
<path fill="none" stroke="black" d="M122.3,-33.09C134.21,-45 151.03,-61.82 164.59,-75.38"/>
<polygon fill="black" stroke="black" points="161.59,-77.33 171.14,-81.92 166.54,-72.38 161.59,-77.33"/>
</g>
</g>
</svg>
