<?xml version="1.0" encoding="UTF-8" standalone="no"?>
<!DOCTYPE svg PUBLIC "-//W3C//DTD SVG 1.1//EN"
 "http://www.w3.org/Graphics/SVG/1.1/DTD/svg11.dtd">
<!-- Generated by graphviz version 8.1.0 (0)
 -->
<!-- Pages: 1 -->
<svg width="243pt" height="235pt"
 viewBox="0.00 0.00 243.39 234.72" xmlns="http://www.w3.org/2000/svg" xmlns:xlink="http://www.w3.org/1999/xlink">
<g id="graph0" class="graph" transform="scale(1 1) rotate(0) translate(4 230.72)">
<polygon fill="white" stroke="none" points="-4,4 -4,-230.72 239.39,-230.72 239.39,4 -4,4"/>
<!-- a -->
<g id="node1" class="node">
<title>a</title>
<ellipse fill="none" stroke="black" cx="139.1" cy="-18" rx="27" ry="18"/>
<text text-anchor="middle" x="139.1" y="-13.32" font-family="Times,serif" font-size="14.00">a</text>
</g>
<!-- d -->
<g id="node4" class="node">
<title>d</title>
<ellipse fill="none" stroke="black" cx="27" cy="-54.42" rx="27" ry="18"/>
<text text-anchor="middle" x="27" y="-49.75" font-family="Times,serif" font-size="14.00">d</text>
</g>
<!-- a&#45;&#45;d -->
<g id="edge2" class="edge">
<title>a&#45;&#45;d</title>
<path fill="none" stroke="black" d="M114.5,-25.99C95.81,-32.07 70.22,-40.38 51.54,-46.45"/>
</g>
<!-- e -->
<g id="node5" class="node">
<title>e</title>
<ellipse fill="none" stroke="black" cx="139.1" cy="-208.72" rx="27" ry="18"/>
<text text-anchor="middle" x="139.1" y="-204.05" font-family="Times,serif" font-size="14.00">e</text>
</g>
<!-- a&#45;&#45;e -->
<g id="edge1" class="edge">
<title>a&#45;&#45;e</title>
<path fill="none" stroke="black" d="M139.1,-36.29C139.1,-72.74 139.1,-154.08 139.1,-190.49"/>
</g>
<!-- b -->
<g id="node2" class="node">
<title>b</title>
<ellipse fill="none" stroke="black" cx="27" cy="-172.3" rx="27" ry="18"/>
<text text-anchor="middle" x="27" y="-167.62" font-family="Times,serif" font-size="14.00">b</text>
</g>
<!-- b&#45;&#45;d -->
<g id="edge3" class="edge">
<title>b&#45;&#45;d</title>
<path fill="none" stroke="black" d="M27,-153.88C27,-131.73 27,-94.8 27,-72.71"/>
</g>
<!-- b&#45;&#45;e -->
<g id="edge4" class="edge">
<title>b&#45;&#45;e</title>
<path fill="none" stroke="black" d="M51.6,-180.29C70.29,-186.36 95.88,-194.68 114.56,-200.75"/>
</g>
<!-- c -->
<g id="node3" class="node">
<title>c</title>
<ellipse fill="none" stroke="black" cx="208.39" cy="-113.36" rx="27" ry="18"/>
<text text-anchor="middle" x="208.39" y="-108.69" font-family="Times,serif" font-size="14.00">c</text>
</g>
<!-- c&#45;&#45;d -->
<g id="edge5" class="edge">
<title>c&#45;&#45;d</title>
<path fill="none" stroke="black" d="M183.92,-105.41C149.3,-94.16 86.38,-73.72 51.65,-62.43"/>
</g>
<!-- c&#45;&#45;e -->
<g id="edge6" class="edge">
<title>c&#45;&#45;e</title>
<path fill="none" stroke="black" d="M196.32,-129.97C183.6,-147.47 163.7,-174.87 151.03,-192.3"/>
</g>
</g>
</svg>
