<?xml version="1.0" encoding="UTF-8" standalone="no"?>
<!DOCTYPE svg PUBLIC "-//W3C//DTD SVG 1.1//EN"
 "http://www.w3.org/Graphics/SVG/1.1/DTD/svg11.dtd">
<!-- Generated by graphviz version 8.1.0 (0)
 -->
<!-- Pages: 1 -->
<svg width="238pt" height="187pt"
 viewBox="0.00 0.00 238.00 186.50" xmlns="http://www.w3.org/2000/svg" xmlns:xlink="http://www.w3.org/1999/xlink">
<g id="graph0" class="graph" transform="scale(1 1) rotate(0) translate(4 182.5)">
<polygon fill="white" stroke="none" points="-4,4 -4,-182.5 234,-182.5 234,4 -4,4"/>
<g id="clust1" class="cluster">
<title>cluster_0</title>
<polygon fill="none" stroke="black" points="8,-93.25 8,-170.5 222,-170.5 222,-93.25 8,-93.25"/>
<text text-anchor="middle" x="115" y="-153.2" font-family="Times,serif" font-size="14.00">Subgraph A</text>
</g>
<g id="clust2" class="cluster">
<title>cluster_1</title>
<polygon fill="none" stroke="black" points="44,-8 44,-85.25 186,-85.25 186,-8 44,-8"/>
<text text-anchor="middle" x="115" y="-67.95" font-family="Times,serif" font-size="14.00">Subgraph B</text>
</g>
<!-- a -->
<g id="node1" class="node">
<title>a</title>
<ellipse fill="none" stroke="black" cx="115" cy="-119.25" rx="27" ry="18"/>
<text text-anchor="middle" x="115" y="-114.58" font-family="Times,serif" font-size="14.00">a</text>
</g>
<!-- d -->
<g id="node4" class="node">
<title>d</title>
<ellipse fill="none" stroke="black" cx="151" cy="-34" rx="27" ry="18"/>
<text text-anchor="middle" x="151" y="-29.32" font-family="Times,serif" font-size="14.00">d</text>
</g>
<!-- a&#45;&#45;d -->
<g id="edge2" class="edge">
<title>a&#45;&#45;d</title>
<path fill="none" stroke="black" d="M122.11,-101.8C128.38,-87.3 137.48,-66.27 143.78,-51.7"/>
</g>
<!-- e -->
<g id="node5" class="node">
<title>e</title>
<ellipse fill="none" stroke="black" cx="79" cy="-34" rx="27" ry="18"/>
<text text-anchor="middle" x="79" y="-29.32" font-family="Times,serif" font-size="14.00">e</text>
</g>
<!-- a&#45;&#45;e -->
<g id="edge1" class="edge">
<title>a&#45;&#45;e</title>
<path fill="none" stroke="black" d="M107.89,-101.8C101.62,-87.3 92.52,-66.27 86.22,-51.7"/>
</g>
<!-- b -->
<g id="node2" class="node">
<title>b</title>
<ellipse fill="none" stroke="black" cx="43" cy="-119.25" rx="27" ry="18"/>
<text text-anchor="middle" x="43" y="-114.58" font-family="Times,serif" font-size="14.00">b</text>
</g>
<!-- b&#45;&#45;d -->
<g id="edge3" class="edge">
<title>b&#45;&#45;d</title>
<path fill="none" stroke="black" d="M59.88,-105.24C80.05,-89.69 113.61,-63.82 133.89,-48.19"/>
</g>
<!-- b&#45;&#45;e -->
<g id="edge4" class="edge">
<title>b&#45;&#45;e</title>
<path fill="none" stroke="black" d="M50.11,-101.8C56.38,-87.3 65.48,-66.27 71.78,-51.7"/>
</g>
<!-- c -->
<g id="node3" class="node">
<title>c</title>
<ellipse fill="none" stroke="black" cx="187" cy="-119.25" rx="27" ry="18"/>
<text text-anchor="middle" x="187" y="-114.58" font-family="Times,serif" font-size="14.00">c</text>
</g>
<!-- c&#45;&#45;d -->
<g id="edge5" class="edge">
<title>c&#45;&#45;d</title>
<path fill="none" stroke="black" d="M179.89,-101.8C173.62,-87.3 164.52,-66.27 158.22,-51.7"/>
</g>
<!-- c&#45;&#45;e -->
<g id="edge6" class="edge">
<title>c&#45;&#45;e</title>
<path fill="none" stroke="black" d="M170.12,-105.24C149.95,-89.69 116.39,-63.82 96.11,-48.19"/>
</g>
</g>
</svg>
