<?xml version="1.0" encoding="UTF-8" standalone="no"?>
<!DOCTYPE svg PUBLIC "-//W3C//DTD SVG 1.1//EN"
 "http://www.w3.org/Graphics/SVG/1.1/DTD/svg11.dtd">
<!-- Generated by graphviz version 8.1.0 (0)
 -->
<!-- Pages: 1 -->
<svg width="900pt" height="884pt"
 viewBox="0.00 0.00 899.54 883.89" xmlns="http://www.w3.org/2000/svg" xmlns:xlink="http://www.w3.org/1999/xlink">
<g id="graph0" class="graph" transform="scale(1 1) rotate(0) translate(4 879.89)">
<polygon fill="white" stroke="none" points="-4,4 -4,-879.89 895.54,-879.89 895.54,4 -4,4"/>
<!-- a -->
<g id="node1" class="node">
<title>a</title>
<ellipse fill="none" stroke="black" cx="845.83" cy="-313.82" rx="27" ry="18"/>
<text text-anchor="middle" x="845.83" y="-309.14" font-family="Times,serif" font-size="14.00">a</text>
</g>
<!-- b -->
<g id="node2" class="node">
<title>b</title>
<ellipse fill="none" stroke="black" cx="791.37" cy="-200.72" rx="27" ry="18"/>
<text text-anchor="middle" x="791.37" y="-196.04" font-family="Times,serif" font-size="14.00">b</text>
</g>
<!-- a&#45;&#45;b -->
<g id="edge1" class="edge">
<title>a&#45;&#45;b</title>
<path fill="none" stroke="black" d="M837.56,-296.64C827.33,-275.38 809.99,-239.39 799.72,-218.06"/>
</g>
<!-- c -->
<g id="node3" class="node">
<title>c</title>
<ellipse fill="none" stroke="black" cx="705.99" cy="-108.7" rx="27" ry="18"/>
<text text-anchor="middle" x="705.99" y="-104.02" font-family="Times,serif" font-size="14.00">c</text>
</g>
<!-- a&#45;&#45;c -->
<g id="edge2" class="edge">
<title>a&#45;&#45;c</title>
<path fill="none" stroke="black" d="M834.39,-297.03C808.1,-258.47 743.65,-163.93 717.39,-125.43"/>
</g>
<!-- d -->
<g id="node4" class="node">
<title>d</title>
<ellipse fill="none" stroke="black" cx="474.89" cy="-18" rx="27" ry="18"/>
<text text-anchor="middle" x="474.89" y="-13.32" font-family="Times,serif" font-size="14.00">d</text>
</g>
<!-- a&#45;&#45;d -->
<g id="edge3" class="edge">
<title>a&#45;&#45;d</title>
<path fill="none" stroke="black" d="M828.44,-299.95C766.13,-250.26 554.49,-81.48 492.25,-31.84"/>
</g>
<!-- b&#45;&#45;c -->
<g id="edge4" class="edge">
<title>b&#45;&#45;c</title>
<path fill="none" stroke="black" d="M776.89,-185.11C761.18,-168.19 736.27,-141.34 720.54,-124.39"/>
</g>
<!-- e -->
<g id="node5" class="node">
<title>e</title>
<ellipse fill="none" stroke="black" cx="597.27" cy="-45.93" rx="27" ry="18"/>
<text text-anchor="middle" x="597.27" y="-41.26" font-family="Times,serif" font-size="14.00">e</text>
</g>
<!-- b&#45;&#45;e -->
<g id="edge5" class="edge">
<title>b&#45;&#45;e</title>
<path fill="none" stroke="black" d="M773.8,-186.71C736.94,-157.31 651.89,-89.49 614.94,-60.02"/>
</g>
<!-- c&#45;&#45;e -->
<g id="edge6" class="edge">
<title>c&#45;&#45;e</title>
<path fill="none" stroke="black" d="M685.28,-96.75C665.94,-85.58 637.22,-69 617.9,-57.84"/>
</g>
<!-- f -->
<g id="node6" class="node">
<title>f</title>
<ellipse fill="none" stroke="black" cx="232.86" cy="-73.24" rx="27" ry="18"/>
<text text-anchor="middle" x="232.86" y="-68.57" font-family="Times,serif" font-size="14.00">f</text>
</g>
<!-- c&#45;&#45;f -->
<g id="edge7" class="edge">
<title>c&#45;&#45;f</title>
<path fill="none" stroke="black" d="M678.85,-106.66C595.5,-100.42 343.78,-81.55 260.18,-75.29"/>
</g>
<!-- d&#45;&#45;f -->
<g id="edge8" class="edge">
<title>d&#45;&#45;f</title>
<path fill="none" stroke="black" d="M448.99,-23.91C402.4,-34.54 305.02,-56.77 258.57,-67.37"/>
</g>
<!-- g -->
<g id="node7" class="node">
<title>g</title>
<ellipse fill="none" stroke="black" cx="349.71" cy="-27.38" rx="27" ry="18"/>
<text text-anchor="middle" x="349.71" y="-22.71" font-family="Times,serif" font-size="14.00">g</text>
</g>
<!-- d&#45;&#45;g -->
<g id="edge9" class="edge">
<title>d&#45;&#45;g</title>
<path fill="none" stroke="black" d="M447.73,-20.04C426.73,-21.61 397.8,-23.78 376.82,-25.35"/>
</g>
<!-- h -->
<g id="node8" class="node">
<title>h</title>
<ellipse fill="none" stroke="black" cx="134.71" cy="-151.51" rx="27" ry="18"/>
<text text-anchor="middle" x="134.71" y="-146.83" font-family="Times,serif" font-size="14.00">h</text>
</g>
<!-- e&#45;&#45;h -->
<g id="edge10" class="edge">
<title>e&#45;&#45;h</title>
<path fill="none" stroke="black" d="M571.41,-51.84C490.36,-70.33 241.87,-127.05 160.68,-145.58"/>
</g>
<!-- f&#45;&#45;g -->
<g id="edge11" class="edge">
<title>f&#45;&#45;g</title>
<path fill="none" stroke="black" d="M256.51,-63.96C276.78,-56 305.84,-44.6 326.1,-36.65"/>
</g>
<!-- f&#45;&#45;h -->
<g id="edge12" class="edge">
<title>f&#45;&#45;h</title>
<path fill="none" stroke="black" d="M215.31,-87.23C197.56,-101.39 170.26,-123.16 152.44,-137.37"/>
</g>
<!-- i -->
<g id="node9" class="node">
<title>i</title>
<ellipse fill="none" stroke="black" cx="64" cy="-255.23" rx="27" ry="18"/>
<text text-anchor="middle" x="64" y="-250.55" font-family="Times,serif" font-size="14.00">i</text>
</g>
<!-- f&#45;&#45;i -->
<g id="edge13" class="edge">
<title>f&#45;&#45;i</title>
<path fill="none" stroke="black" d="M218.46,-88.76C186.56,-123.14 110.23,-205.41 78.36,-239.75"/>
</g>
<!-- j -->
<g id="node10" class="node">
<title>j</title>
<ellipse fill="none" stroke="black" cx="134.71" cy="-724.38" rx="27" ry="18"/>
<text text-anchor="middle" x="134.71" y="-719.71" font-family="Times,serif" font-size="14.00">j</text>
</g>
<!-- f&#45;&#45;j -->
<g id="edge14" class="edge">
<title>f&#45;&#45;j</title>
<path fill="none" stroke="black" d="M230.13,-91.34C216.04,-184.79 151.64,-612.09 137.48,-706.07"/>
</g>
<!-- k -->
<g id="node11" class="node">
<title>k</title>
<ellipse fill="none" stroke="black" cx="864.54" cy="-437.95" rx="27" ry="18"/>
<text text-anchor="middle" x="864.54" y="-433.27" font-family="Times,serif" font-size="14.00">k</text>
</g>
<!-- g&#45;&#45;k -->
<g id="edge15" class="edge">
<title>g&#45;&#45;k</title>
<path fill="none" stroke="black" d="M367.43,-41.51C446.65,-104.68 767.84,-360.82 846.9,-423.87"/>
</g>
<!-- o -->
<g id="node12" class="node">
<title>o</title>
<ellipse fill="none" stroke="black" cx="27" cy="-500.71" rx="27" ry="18"/>
<text text-anchor="middle" x="27" y="-496.04" font-family="Times,serif" font-size="14.00">o</text>
</g>
<!-- h&#45;&#45;o -->
<g id="edge16" class="edge">
<title>h&#45;&#45;o</title>
<path fill="none" stroke="black" d="M129.22,-169.31C110.75,-229.21 50.94,-423.1 32.48,-482.95"/>
</g>
<!-- l -->
<g id="node13" class="node">
<title>l</title>
<ellipse fill="none" stroke="black" cx="27" cy="-375.18" rx="27" ry="18"/>
<text text-anchor="middle" x="27" y="-370.51" font-family="Times,serif" font-size="14.00">l</text>
</g>
<!-- h&#45;&#45;l -->
<g id="edge17" class="edge">
<title>h&#45;&#45;l</title>
<path fill="none" stroke="black" d="M126.26,-169.06C106.13,-210.87 55.51,-315.98 35.41,-357.71"/>
</g>
<!-- i&#45;&#45;j -->
<g id="edge18" class="edge">
<title>i&#45;&#45;j</title>
<path fill="none" stroke="black" d="M66.77,-273.62C78.08,-348.67 120.69,-631.3 131.96,-706.12"/>
</g>
<!-- i&#45;&#45;l -->
<g id="edge19" class="edge">
<title>i&#45;&#45;l</title>
<path fill="none" stroke="black" d="M58.46,-273.19C51.49,-295.8 39.57,-334.43 32.58,-357.1"/>
</g>
<!-- m -->
<g id="node14" class="node">
<title>m</title>
<ellipse fill="none" stroke="black" cx="64" cy="-620.67" rx="27" ry="18"/>
<text text-anchor="middle" x="64" y="-615.99" font-family="Times,serif" font-size="14.00">m</text>
</g>
<!-- i&#45;&#45;m -->
<g id="edge20" class="edge">
<title>i&#45;&#45;m</title>
<path fill="none" stroke="black" d="M64,-273.6C64,-336.13 64,-540.22 64,-602.47"/>
</g>
<!-- j&#45;&#45;k -->
<g id="edge21" class="edge">
<title>j&#45;&#45;k</title>
<path fill="none" stroke="black" d="M158.17,-715.18C267.96,-672.09 730.42,-490.59 840.81,-447.26"/>
</g>
<!-- j&#45;&#45;m -->
<g id="edge22" class="edge">
<title>j&#45;&#45;m</title>
<path fill="none" stroke="black" d="M123.35,-707.72C110.16,-688.36 88.52,-656.63 75.33,-637.29"/>
</g>
<!-- n -->
<g id="node15" class="node">
<title>n</title>
<ellipse fill="none" stroke="black" cx="791.37" cy="-675.17" rx="27" ry="18"/>
<text text-anchor="middle" x="791.37" y="-670.5" font-family="Times,serif" font-size="14.00">n</text>
</g>
<!-- j&#45;&#45;n -->
<g id="edge23" class="edge">
<title>j&#45;&#45;n</title>
<path fill="none" stroke="black" d="M161.68,-722.36C267.99,-714.4 657.47,-685.21 764.18,-677.21"/>
</g>
<!-- k&#45;&#45;n -->
<g id="edge24" class="edge">
<title>k&#45;&#45;n</title>
<path fill="none" stroke="black" d="M859.04,-455.78C845.48,-499.74 810.56,-612.96 796.93,-657.14"/>
</g>
<!-- r -->
<g id="node16" class="node">
<title>r</title>
<ellipse fill="none" stroke="black" cx="845.83" cy="-562.07" rx="27" ry="18"/>
<text text-anchor="middle" x="845.83" y="-557.4" font-family="Times,serif" font-size="14.00">r</text>
</g>
<!-- k&#45;&#45;r -->
<g id="edge25" class="edge">
<title>k&#45;&#45;r</title>
<path fill="none" stroke="black" d="M861.78,-456.26C858.25,-479.73 852.15,-520.18 848.61,-543.68"/>
</g>
<!-- p -->
<g id="node17" class="node">
<title>p</title>
<ellipse fill="none" stroke="black" cx="232.86" cy="-802.65" rx="27" ry="18"/>
<text text-anchor="middle" x="232.86" y="-797.98" font-family="Times,serif" font-size="14.00">p</text>
</g>
<!-- o&#45;&#45;p -->
<g id="edge33" class="edge">
<title>o&#45;&#45;p</title>
<path fill="none" stroke="black" d="M38.36,-517.38C74.35,-570.16 185.59,-733.32 221.53,-786.04"/>
</g>
<!-- s -->
<g id="node19" class="node">
<title>s</title>
<ellipse fill="none" stroke="black" cx="349.71" cy="-848.51" rx="27" ry="18"/>
<text text-anchor="middle" x="349.71" y="-843.84" font-family="Times,serif" font-size="14.00">s</text>
</g>
<!-- o&#45;&#45;s -->
<g id="edge34" class="edge">
<title>o&#45;&#45;s</title>
<path fill="none" stroke="black" d="M41.28,-516.11C94.59,-573.55 281.59,-775.09 335.23,-832.9"/>
</g>
<!-- l&#45;&#45;o -->
<g id="edge26" class="edge">
<title>l&#45;&#45;o</title>
<path fill="none" stroke="black" d="M27,-393.43C27,-417.23 27,-458.63 27,-482.44"/>
</g>
<!-- l&#45;&#45;m -->
<g id="edge27" class="edge">
<title>l&#45;&#45;m</title>
<path fill="none" stroke="black" d="M29.72,-393.23C36.56,-438.63 54.43,-557.16 61.28,-602.59"/>
</g>
<!-- m&#45;&#45;o -->
<g id="edge28" class="edge">
<title>m&#45;&#45;o</title>
<path fill="none" stroke="black" d="M58.46,-602.71C51.49,-580.09 39.57,-541.46 32.58,-518.79"/>
</g>
<!-- m&#45;&#45;n -->
<g id="edge29" class="edge">
<title>m&#45;&#45;n</title>
<path fill="none" stroke="black" d="M91.19,-622.7C205.83,-631.29 649.15,-664.52 764.05,-673.13"/>
</g>
<!-- m&#45;&#45;p -->
<g id="edge30" class="edge">
<title>m&#45;&#45;p</title>
<path fill="none" stroke="black" d="M78.4,-636.18C110.3,-670.56 186.63,-752.83 218.5,-787.17"/>
</g>
<!-- n&#45;&#45;r -->
<g id="edge31" class="edge">
<title>n&#45;&#45;r</title>
<path fill="none" stroke="black" d="M799.64,-658C809.88,-636.74 827.21,-600.75 837.48,-579.41"/>
</g>
<!-- q -->
<g id="node18" class="node">
<title>q</title>
<ellipse fill="none" stroke="black" cx="705.99" cy="-767.19" rx="27" ry="18"/>
<text text-anchor="middle" x="705.99" y="-762.52" font-family="Times,serif" font-size="14.00">q</text>
</g>
<!-- n&#45;&#45;q -->
<g id="edge32" class="edge">
<title>n&#45;&#45;q</title>
<path fill="none" stroke="black" d="M776.89,-690.78C761.18,-707.71 736.27,-734.56 720.54,-751.51"/>
</g>
<!-- t -->
<g id="node20" class="node">
<title>t</title>
<ellipse fill="none" stroke="black" cx="597.27" cy="-829.96" rx="27" ry="18"/>
<text text-anchor="middle" x="597.27" y="-825.28" font-family="Times,serif" font-size="14.00">t</text>
</g>
<!-- r&#45;&#45;t -->
<g id="edge40" class="edge">
<title>r&#45;&#45;t</title>
<path fill="none" stroke="black" d="M831.4,-577.64C787.47,-624.98 655.74,-766.95 611.75,-814.36"/>
</g>
<!-- p&#45;&#45;q -->
<g id="edge35" class="edge">
<title>p&#45;&#45;q</title>
<path fill="none" stroke="black" d="M260,-800.62C343.35,-794.37 595.06,-775.51 678.67,-769.24"/>
</g>
<!-- p&#45;&#45;s -->
<g id="edge36" class="edge">
<title>p&#45;&#45;s</title>
<path fill="none" stroke="black" d="M256.51,-811.93C276.78,-819.89 305.84,-831.29 326.1,-839.25"/>
</g>
<!-- p&#45;&#45;t -->
<g id="edge37" class="edge">
<title>p&#45;&#45;t</title>
<path fill="none" stroke="black" d="M259.95,-804.68C327.42,-809.74 502.35,-822.85 570,-827.92"/>
</g>
<!-- q&#45;&#45;r -->
<g id="edge38" class="edge">
<title>q&#45;&#45;r</title>
<path fill="none" stroke="black" d="M717.43,-750.41C743.72,-711.85 808.18,-617.31 834.43,-578.8"/>
</g>
<!-- q&#45;&#45;t -->
<g id="edge39" class="edge">
<title>q&#45;&#45;t</title>
<path fill="none" stroke="black" d="M685.28,-779.15C665.94,-790.32 637.22,-806.9 617.9,-818.05"/>
</g>
<!-- z -->
<g id="node21" class="node">
<title>z</title>
<ellipse fill="none" stroke="black" cx="474.89" cy="-857.89" rx="27" ry="18"/>
<text text-anchor="middle" x="474.89" y="-853.22" font-family="Times,serif" font-size="14.00">z</text>
</g>
<!-- s&#45;&#45;z -->
<g id="edge41" class="edge">
<title>s&#45;&#45;z</title>
<path fill="none" stroke="black" d="M376.87,-850.55C397.87,-852.12 426.8,-854.29 447.78,-855.86"/>
</g>
<!-- t&#45;&#45;z -->
<g id="edge42" class="edge">
<title>t&#45;&#45;z</title>
<path fill="none" stroke="black" d="M571.32,-835.88C550.55,-840.62 521.57,-847.24 500.81,-851.98"/>
</g>
</g>
</svg>
