<?xml version="1.0" encoding="UTF-8" standalone="no"?>
<!DOCTYPE svg PUBLIC "-//W3C//DTD SVG 1.1//EN"
 "http://www.w3.org/Graphics/SVG/1.1/DTD/svg11.dtd">
<!-- Generated by graphviz version 8.1.0 (0)
 -->
<!-- Pages: 1 -->
<svg width="1142pt" height="203pt"
 viewBox="0.00 0.00 1142.00 203.00" xmlns="http://www.w3.org/2000/svg" xmlns:xlink="http://www.w3.org/1999/xlink">
<g id="graph0" class="graph" transform="scale(1 1) rotate(0) translate(4 199)">
<polygon fill="white" stroke="none" points="-4,4 -4,-199 1138,-199 1138,4 -4,4"/>
<!-- a -->
<g id="node1" class="node">
<title>a</title>
<ellipse fill="none" stroke="black" cx="27" cy="-108" rx="27" ry="18"/>
<text text-anchor="middle" x="27" y="-103.33" font-family="Times,serif" font-size="14.00">a</text>
</g>
<!-- b -->
<g id="node2" class="node">
<title>b</title>
<ellipse fill="none" stroke="black" cx="117" cy="-62" rx="27" ry="18"/>
<text text-anchor="middle" x="117" y="-57.33" font-family="Times,serif" font-size="14.00">b</text>
</g>
<!-- a&#45;&#45;b -->
<g id="edge1" class="edge">
<title>a&#45;&#45;b</title>
<path fill="none" stroke="black" d="M48.85,-97.1C62.78,-89.82 81.03,-80.28 94.99,-72.98"/>
</g>
<!-- c -->
<g id="node3" class="node">
<title>c</title>
<ellipse fill="none" stroke="black" cx="207" cy="-100" rx="27" ry="18"/>
<text text-anchor="middle" x="207" y="-95.33" font-family="Times,serif" font-size="14.00">c</text>
</g>
<!-- a&#45;&#45;c -->
<g id="edge2" class="edge">
<title>a&#45;&#45;c</title>
<path fill="none" stroke="black" d="M54.26,-106.82C87.92,-105.31 145.92,-102.7 179.63,-101.19"/>
</g>
<!-- d -->
<g id="node4" class="node">
<title>d</title>
<ellipse fill="none" stroke="black" cx="207" cy="-154" rx="27" ry="18"/>
<text text-anchor="middle" x="207" y="-149.32" font-family="Times,serif" font-size="14.00">d</text>
</g>
<!-- a&#45;&#45;d -->
<g id="edge3" class="edge">
<title>a&#45;&#45;d</title>
<path fill="none" stroke="black" d="M52.75,-114.4C86.76,-123.18 147.56,-138.9 181.46,-147.66"/>
</g>
<!-- b&#45;&#45;c -->
<g id="edge4" class="edge">
<title>b&#45;&#45;c</title>
<path fill="none" stroke="black" d="M140.21,-71.59C153.55,-77.35 170.46,-84.65 183.8,-90.41"/>
</g>
<!-- e -->
<g id="node5" class="node">
<title>e</title>
<ellipse fill="none" stroke="black" cx="297" cy="-54" rx="27" ry="18"/>
<text text-anchor="middle" x="297" y="-49.33" font-family="Times,serif" font-size="14.00">e</text>
</g>
<!-- b&#45;&#45;e -->
<g id="edge5" class="edge">
<title>b&#45;&#45;e</title>
<path fill="none" stroke="black" d="M144.26,-60.82C177.92,-59.31 235.92,-56.7 269.63,-55.19"/>
</g>
<!-- c&#45;&#45;e -->
<g id="edge6" class="edge">
<title>c&#45;&#45;e</title>
<path fill="none" stroke="black" d="M228.85,-89.1C242.78,-81.82 261.03,-72.28 274.99,-64.98"/>
</g>
<!-- f -->
<g id="node6" class="node">
<title>f</title>
<ellipse fill="none" stroke="black" cx="297" cy="-108" rx="27" ry="18"/>
<text text-anchor="middle" x="297" y="-103.33" font-family="Times,serif" font-size="14.00">f</text>
</g>
<!-- c&#45;&#45;f -->
<g id="edge7" class="edge">
<title>c&#45;&#45;f</title>
<path fill="none" stroke="black" d="M233.93,-102.36C245.28,-103.39 258.58,-104.6 269.95,-105.63"/>
</g>
<!-- d&#45;&#45;f -->
<g id="edge8" class="edge">
<title>d&#45;&#45;f</title>
<path fill="none" stroke="black" d="M228.85,-143.1C242.78,-135.82 261.03,-126.28 274.99,-118.98"/>
</g>
<!-- g -->
<g id="node7" class="node">
<title>g</title>
<ellipse fill="none" stroke="black" cx="387" cy="-177" rx="27" ry="18"/>
<text text-anchor="middle" x="387" y="-172.32" font-family="Times,serif" font-size="14.00">g</text>
</g>
<!-- d&#45;&#45;g -->
<g id="edge9" class="edge">
<title>d&#45;&#45;g</title>
<path fill="none" stroke="black" d="M233.88,-157.34C267.63,-161.71 326.32,-169.29 360.09,-173.65"/>
</g>
<!-- h -->
<g id="node8" class="node">
<title>h</title>
<ellipse fill="none" stroke="black" cx="387" cy="-31" rx="27" ry="18"/>
<text text-anchor="middle" x="387" y="-26.32" font-family="Times,serif" font-size="14.00">h</text>
</g>
<!-- e&#45;&#45;h -->
<g id="edge10" class="edge">
<title>e&#45;&#45;h</title>
<path fill="none" stroke="black" d="M322.51,-47.59C334.62,-44.43 349.19,-40.62 361.31,-37.45"/>
</g>
<!-- f&#45;&#45;g -->
<g id="edge11" class="edge">
<title>f&#45;&#45;g</title>
<path fill="none" stroke="black" d="M315.39,-121.63C330.81,-133.73 353.23,-151.31 368.65,-163.4"/>
</g>
<!-- f&#45;&#45;h -->
<g id="edge12" class="edge">
<title>f&#45;&#45;h</title>
<path fill="none" stroke="black" d="M314.14,-93.88C329.92,-80.07 353.82,-59.16 369.66,-45.29"/>
</g>
<!-- i -->
<g id="node9" class="node">
<title>i</title>
<ellipse fill="none" stroke="black" cx="387" cy="-85" rx="27" ry="18"/>
<text text-anchor="middle" x="387" y="-80.33" font-family="Times,serif" font-size="14.00">i</text>
</g>
<!-- f&#45;&#45;i -->
<g id="edge13" class="edge">
<title>f&#45;&#45;i</title>
<path fill="none" stroke="black" d="M322.51,-101.59C334.62,-98.43 349.19,-94.62 361.31,-91.45"/>
</g>
<!-- j -->
<g id="node10" class="node">
<title>j</title>
<ellipse fill="none" stroke="black" cx="477" cy="-131" rx="27" ry="18"/>
<text text-anchor="middle" x="477" y="-126.33" font-family="Times,serif" font-size="14.00">j</text>
</g>
<!-- f&#45;&#45;j -->
<g id="edge14" class="edge">
<title>f&#45;&#45;j</title>
<path fill="none" stroke="black" d="M323.88,-111.34C357.63,-115.71 416.32,-123.29 450.09,-127.65"/>
</g>
<!-- k -->
<g id="node11" class="node">
<title>k</title>
<ellipse fill="none" stroke="black" cx="567" cy="-177" rx="27" ry="18"/>
<text text-anchor="middle" x="567" y="-172.32" font-family="Times,serif" font-size="14.00">k</text>
</g>
<!-- g&#45;&#45;k -->
<g id="edge15" class="edge">
<title>g&#45;&#45;k</title>
<path fill="none" stroke="black" d="M414.26,-177C447.92,-177 505.92,-177 539.63,-177"/>
</g>
<!-- o -->
<g id="node12" class="node">
<title>o</title>
<ellipse fill="none" stroke="black" cx="657" cy="-39" rx="27" ry="18"/>
<text text-anchor="middle" x="657" y="-34.33" font-family="Times,serif" font-size="14.00">o</text>
</g>
<!-- h&#45;&#45;o -->
<g id="edge16" class="edge">
<title>h&#45;&#45;o</title>
<path fill="none" stroke="black" d="M410.88,-22.2C422.42,-18.23 436.75,-13.98 450,-12 515.81,-2.14 593.76,-20.52 632.17,-31.55"/>
</g>
<!-- l -->
<g id="node13" class="node">
<title>l</title>
<ellipse fill="none" stroke="black" cx="477" cy="-39" rx="27" ry="18"/>
<text text-anchor="middle" x="477" y="-34.33" font-family="Times,serif" font-size="14.00">l</text>
</g>
<!-- h&#45;&#45;l -->
<g id="edge17" class="edge">
<title>h&#45;&#45;l</title>
<path fill="none" stroke="black" d="M413.93,-33.36C425.28,-34.39 438.58,-35.6 449.95,-36.63"/>
</g>
<!-- i&#45;&#45;j -->
<g id="edge18" class="edge">
<title>i&#45;&#45;j</title>
<path fill="none" stroke="black" d="M408.85,-95.9C422.78,-103.18 441.03,-112.72 454.99,-120.02"/>
</g>
<!-- i&#45;&#45;l -->
<g id="edge19" class="edge">
<title>i&#45;&#45;l</title>
<path fill="none" stroke="black" d="M408.85,-74.1C422.78,-66.82 441.03,-57.28 454.99,-49.98"/>
</g>
<!-- m -->
<g id="node14" class="node">
<title>m</title>
<ellipse fill="none" stroke="black" cx="567" cy="-85" rx="27" ry="18"/>
<text text-anchor="middle" x="567" y="-80.33" font-family="Times,serif" font-size="14.00">m</text>
</g>
<!-- i&#45;&#45;m -->
<g id="edge20" class="edge">
<title>i&#45;&#45;m</title>
<path fill="none" stroke="black" d="M414.26,-85C447.92,-85 505.92,-85 539.63,-85"/>
</g>
<!-- j&#45;&#45;k -->
<g id="edge21" class="edge">
<title>j&#45;&#45;k</title>
<path fill="none" stroke="black" d="M498.85,-141.9C512.78,-149.18 531.03,-158.72 544.99,-166.02"/>
</g>
<!-- j&#45;&#45;m -->
<g id="edge22" class="edge">
<title>j&#45;&#45;m</title>
<path fill="none" stroke="black" d="M498.85,-120.1C512.78,-112.82 531.03,-103.28 544.99,-95.98"/>
</g>
<!-- n -->
<g id="node15" class="node">
<title>n</title>
<ellipse fill="none" stroke="black" cx="657" cy="-131" rx="27" ry="18"/>
<text text-anchor="middle" x="657" y="-126.33" font-family="Times,serif" font-size="14.00">n</text>
</g>
<!-- j&#45;&#45;n -->
<g id="edge23" class="edge">
<title>j&#45;&#45;n</title>
<path fill="none" stroke="black" d="M504.26,-131C537.92,-131 595.92,-131 629.63,-131"/>
</g>
<!-- k&#45;&#45;n -->
<g id="edge24" class="edge">
<title>k&#45;&#45;n</title>
<path fill="none" stroke="black" d="M588.85,-166.1C602.78,-158.82 621.03,-149.28 634.99,-141.98"/>
</g>
<!-- r -->
<g id="node16" class="node">
<title>r</title>
<ellipse fill="none" stroke="black" cx="927" cy="-154" rx="27" ry="18"/>
<text text-anchor="middle" x="927" y="-149.32" font-family="Times,serif" font-size="14.00">r</text>
</g>
<!-- k&#45;&#45;r -->
<g id="edge25" class="edge">
<title>k&#45;&#45;r</title>
<path fill="none" stroke="black" d="M594.16,-175.84C645.79,-173.48 764.44,-167.67 864,-160 875.86,-159.09 888.98,-157.85 900.08,-156.74"/>
</g>
<!-- p -->
<g id="node17" class="node">
<title>p</title>
<ellipse fill="none" stroke="black" cx="747" cy="-64" rx="27" ry="18"/>
<text text-anchor="middle" x="747" y="-59.33" font-family="Times,serif" font-size="14.00">p</text>
</g>
<!-- o&#45;&#45;p -->
<g id="edge33" class="edge">
<title>o&#45;&#45;p</title>
<path fill="none" stroke="black" d="M682.05,-45.83C694.36,-49.33 709.32,-53.58 721.68,-57.09"/>
</g>
<!-- s -->
<g id="node19" class="node">
<title>s</title>
<ellipse fill="none" stroke="black" cx="837" cy="-18" rx="27" ry="18"/>
<text text-anchor="middle" x="837" y="-13.32" font-family="Times,serif" font-size="14.00">s</text>
</g>
<!-- o&#45;&#45;s -->
<g id="edge34" class="edge">
<title>o&#45;&#45;s</title>
<path fill="none" stroke="black" d="M683.88,-35.95C717.63,-31.96 776.32,-25.04 810.09,-21.06"/>
</g>
<!-- l&#45;&#45;o -->
<g id="edge26" class="edge">
<title>l&#45;&#45;o</title>
<path fill="none" stroke="black" d="M504.26,-39C537.92,-39 595.92,-39 629.63,-39"/>
</g>
<!-- l&#45;&#45;m -->
<g id="edge27" class="edge">
<title>l&#45;&#45;m</title>
<path fill="none" stroke="black" d="M498.85,-49.9C512.78,-57.18 531.03,-66.72 544.99,-74.02"/>
</g>
<!-- m&#45;&#45;o -->
<g id="edge28" class="edge">
<title>m&#45;&#45;o</title>
<path fill="none" stroke="black" d="M588.85,-74.1C602.78,-66.82 621.03,-57.28 634.99,-49.98"/>
</g>
<!-- m&#45;&#45;n -->
<g id="edge29" class="edge">
<title>m&#45;&#45;n</title>
<path fill="none" stroke="black" d="M588.85,-95.9C602.78,-103.18 621.03,-112.72 634.99,-120.02"/>
</g>
<!-- m&#45;&#45;p -->
<g id="edge30" class="edge">
<title>m&#45;&#45;p</title>
<path fill="none" stroke="black" d="M593.88,-81.95C627.63,-77.96 686.32,-71.04 720.09,-67.06"/>
</g>
<!-- n&#45;&#45;r -->
<g id="edge31" class="edge">
<title>n&#45;&#45;r</title>
<path fill="none" stroke="black" d="M684.18,-133.25C735.42,-137.64 848.39,-147.34 899.71,-151.74"/>
</g>
<!-- q -->
<g id="node18" class="node">
<title>q</title>
<ellipse fill="none" stroke="black" cx="837" cy="-110" rx="27" ry="18"/>
<text text-anchor="middle" x="837" y="-105.33" font-family="Times,serif" font-size="14.00">q</text>
</g>
<!-- n&#45;&#45;q -->
<g id="edge32" class="edge">
<title>n&#45;&#45;q</title>
<path fill="none" stroke="black" d="M683.88,-127.95C717.63,-123.96 776.32,-117.04 810.09,-113.06"/>
</g>
<!-- t -->
<g id="node20" class="node">
<title>t</title>
<ellipse fill="none" stroke="black" cx="1017" cy="-83" rx="27" ry="18"/>
<text text-anchor="middle" x="1017" y="-78.33" font-family="Times,serif" font-size="14.00">t</text>
</g>
<!-- r&#45;&#45;t -->
<g id="edge40" class="edge">
<title>r&#45;&#45;t</title>
<path fill="none" stroke="black" d="M944.97,-140.31C960.55,-127.74 983.52,-109.21 999.08,-96.65"/>
</g>
<!-- p&#45;&#45;q -->
<g id="edge35" class="edge">
<title>p&#45;&#45;q</title>
<path fill="none" stroke="black" d="M768.85,-74.9C782.78,-82.18 801.03,-91.72 814.99,-99.02"/>
</g>
<!-- p&#45;&#45;s -->
<g id="edge36" class="edge">
<title>p&#45;&#45;s</title>
<path fill="none" stroke="black" d="M768.85,-53.1C782.78,-45.82 801.03,-36.28 814.99,-28.98"/>
</g>
<!-- p&#45;&#45;t -->
<g id="edge37" class="edge">
<title>p&#45;&#45;t</title>
<path fill="none" stroke="black" d="M774.18,-65.86C825.42,-69.49 938.39,-77.5 989.71,-81.14"/>
</g>
<!-- q&#45;&#45;r -->
<g id="edge38" class="edge">
<title>q&#45;&#45;r</title>
<path fill="none" stroke="black" d="M859.3,-120.65C873.04,-127.52 890.83,-136.42 904.59,-143.29"/>
</g>
<!-- q&#45;&#45;t -->
<g id="edge39" class="edge">
<title>q&#45;&#45;t</title>
<path fill="none" stroke="black" d="M863.5,-106.13C897.24,-101.01 956.39,-92.04 990.26,-86.91"/>
</g>
<!-- z -->
<g id="node21" class="node">
<title>z</title>
<ellipse fill="none" stroke="black" cx="1107" cy="-45" rx="27" ry="18"/>
<text text-anchor="middle" x="1107" y="-40.33" font-family="Times,serif" font-size="14.00">z</text>
</g>
<!-- s&#45;&#45;z -->
<g id="edge41" class="edge">
<title>s&#45;&#45;z</title>
<path fill="none" stroke="black" d="M864.18,-20.64C915.55,-25.81 1028.97,-37.24 1080.1,-42.39"/>
</g>
<!-- t&#45;&#45;z -->
<g id="edge42" class="edge">
<title>t&#45;&#45;z</title>
<path fill="none" stroke="black" d="M1040.21,-73.41C1053.55,-67.65 1070.46,-60.35 1083.8,-54.59"/>
</g>
</g>
</svg>
