<?xml version="1.0" encoding="UTF-8" standalone="no"?>
<!DOCTYPE svg PUBLIC "-//W3C//DTD SVG 1.1//EN"
 "http://www.w3.org/Graphics/SVG/1.1/DTD/svg11.dtd">
<!-- Generated by graphviz version 8.1.0 (0)
 -->
<!-- Pages: 1 -->
<svg width="692pt" height="229pt"
 viewBox="0.00 0.00 692.00 229.00" xmlns="http://www.w3.org/2000/svg" xmlns:xlink="http://www.w3.org/1999/xlink">
<g id="graph0" class="graph" transform="scale(1 1) rotate(0) translate(4 225)">
<polygon fill="white" stroke="none" points="-4,4 -4,-225 688,-225 688,4 -4,4"/>
<!-- a -->
<g id="node1" class="node">
<title>a</title>
<ellipse fill="none" stroke="black" cx="27" cy="-149" rx="27" ry="18"/>
<text text-anchor="middle" x="27" y="-144.32" font-family="Times,serif" font-size="14.00">a</text>
</g>
<!-- b -->
<g id="node2" class="node">
<title>b</title>
<ellipse fill="none" stroke="black" cx="117" cy="-203" rx="27" ry="18"/>
<text text-anchor="middle" x="117" y="-198.32" font-family="Times,serif" font-size="14.00">b</text>
</g>
<!-- a&#45;&#45;b -->
<g id="edge1" class="edge">
<title>a&#45;&#45;b</title>
<path fill="none" stroke="black" d="M47.53,-160.98C62.11,-169.93 81.95,-182.11 96.52,-191.05"/>
</g>
<!-- c -->
<g id="node3" class="node">
<title>c</title>
<ellipse fill="none" stroke="black" cx="117" cy="-149" rx="27" ry="18"/>
<text text-anchor="middle" x="117" y="-144.32" font-family="Times,serif" font-size="14.00">c</text>
</g>
<!-- a&#45;&#45;c -->
<g id="edge2" class="edge">
<title>a&#45;&#45;c</title>
<path fill="none" stroke="black" d="M54.4,-149C65.54,-149 78.48,-149 89.62,-149"/>
</g>
<!-- d -->
<g id="node4" class="node">
<title>d</title>
<ellipse fill="none" stroke="black" cx="117" cy="-95" rx="27" ry="18"/>
<text text-anchor="middle" x="117" y="-90.33" font-family="Times,serif" font-size="14.00">d</text>
</g>
<!-- a&#45;&#45;d -->
<g id="edge3" class="edge">
<title>a&#45;&#45;d</title>
<path fill="none" stroke="black" d="M47.53,-137.02C62.11,-128.07 81.95,-115.89 96.52,-106.95"/>
</g>
<!-- b&#45;&#45;c -->
<g id="edge4" class="edge">
<title>b&#45;&#45;c</title>
<path fill="none" stroke="black" d="M117,-184.51C117,-178.72 117,-172.93 117,-167.14"/>
</g>
<!-- e -->
<g id="node5" class="node">
<title>e</title>
<ellipse fill="none" stroke="black" cx="207" cy="-203" rx="27" ry="18"/>
<text text-anchor="middle" x="207" y="-198.32" font-family="Times,serif" font-size="14.00">e</text>
</g>
<!-- b&#45;&#45;e -->
<g id="edge5" class="edge">
<title>b&#45;&#45;e</title>
<path fill="none" stroke="black" d="M144.4,-203C155.54,-203 168.48,-203 179.62,-203"/>
</g>
<!-- c&#45;&#45;e -->
<g id="edge6" class="edge">
<title>c&#45;&#45;e</title>
<path fill="none" stroke="black" d="M137.53,-160.98C152.11,-169.93 171.95,-182.11 186.52,-191.05"/>
</g>
<!-- f -->
<g id="node6" class="node">
<title>f</title>
<ellipse fill="none" stroke="black" cx="207" cy="-149" rx="27" ry="18"/>
<text text-anchor="middle" x="207" y="-144.32" font-family="Times,serif" font-size="14.00">f</text>
</g>
<!-- c&#45;&#45;f -->
<g id="edge7" class="edge">
<title>c&#45;&#45;f</title>
<path fill="none" stroke="black" d="M144.4,-149C155.54,-149 168.48,-149 179.62,-149"/>
</g>
<!-- d&#45;&#45;f -->
<g id="edge8" class="edge">
<title>d&#45;&#45;f</title>
<path fill="none" stroke="black" d="M137.53,-106.98C152.11,-115.93 171.95,-128.11 186.52,-137.05"/>
</g>
<!-- g -->
<g id="node7" class="node">
<title>g</title>
<ellipse fill="none" stroke="black" cx="207" cy="-95" rx="27" ry="18"/>
<text text-anchor="middle" x="207" y="-90.33" font-family="Times,serif" font-size="14.00">g</text>
</g>
<!-- d&#45;&#45;g -->
<g id="edge9" class="edge">
<title>d&#45;&#45;g</title>
<path fill="none" stroke="black" d="M144.4,-95C155.54,-95 168.48,-95 179.62,-95"/>
</g>
<!-- h -->
<g id="node8" class="node">
<title>h</title>
<ellipse fill="none" stroke="black" cx="297" cy="-203" rx="27" ry="18"/>
<text text-anchor="middle" x="297" y="-198.32" font-family="Times,serif" font-size="14.00">h</text>
</g>
<!-- e&#45;&#45;h -->
<g id="edge10" class="edge">
<title>e&#45;&#45;h</title>
<path fill="none" stroke="black" d="M234.4,-203C245.54,-203 258.48,-203 269.62,-203"/>
</g>
<!-- f&#45;&#45;g -->
<g id="edge11" class="edge">
<title>f&#45;&#45;g</title>
<path fill="none" stroke="black" d="M207,-130.51C207,-124.72 207,-118.93 207,-113.14"/>
</g>
<!-- f&#45;&#45;h -->
<g id="edge12" class="edge">
<title>f&#45;&#45;h</title>
<path fill="none" stroke="black" d="M227.53,-160.98C242.11,-169.93 261.95,-182.11 276.52,-191.05"/>
</g>
<!-- i -->
<g id="node9" class="node">
<title>i</title>
<ellipse fill="none" stroke="black" cx="297" cy="-149" rx="27" ry="18"/>
<text text-anchor="middle" x="297" y="-144.32" font-family="Times,serif" font-size="14.00">i</text>
</g>
<!-- f&#45;&#45;i -->
<g id="edge13" class="edge">
<title>f&#45;&#45;i</title>
<path fill="none" stroke="black" d="M234.4,-149C245.54,-149 258.48,-149 269.62,-149"/>
</g>
<!-- j -->
<g id="node10" class="node">
<title>j</title>
<ellipse fill="none" stroke="black" cx="297" cy="-95" rx="27" ry="18"/>
<text text-anchor="middle" x="297" y="-90.33" font-family="Times,serif" font-size="14.00">j</text>
</g>
<!-- f&#45;&#45;j -->
<g id="edge14" class="edge">
<title>f&#45;&#45;j</title>
<path fill="none" stroke="black" d="M227.53,-137.02C242.11,-128.07 261.95,-115.89 276.52,-106.95"/>
</g>
<!-- k -->
<g id="node11" class="node">
<title>k</title>
<ellipse fill="none" stroke="black" cx="297" cy="-41" rx="27" ry="18"/>
<text text-anchor="middle" x="297" y="-36.33" font-family="Times,serif" font-size="14.00">k</text>
</g>
<!-- g&#45;&#45;k -->
<g id="edge15" class="edge">
<title>g&#45;&#45;k</title>
<path fill="none" stroke="black" d="M227.53,-83.02C242.11,-74.07 261.95,-61.89 276.52,-52.95"/>
</g>
<!-- o -->
<g id="node12" class="node">
<title>o</title>
<ellipse fill="none" stroke="black" cx="477" cy="-180" rx="27" ry="18"/>
<text text-anchor="middle" x="477" y="-175.32" font-family="Times,serif" font-size="14.00">o</text>
</g>
<!-- h&#45;&#45;o -->
<g id="edge16" class="edge">
<title>h&#45;&#45;o</title>
<path fill="none" stroke="black" d="M323.64,-207.35C347.35,-210.56 383.42,-213.37 414,-207 428.48,-203.98 443.73,-197.4 455.48,-191.48"/>
</g>
<!-- l -->
<g id="node13" class="node">
<title>l</title>
<ellipse fill="none" stroke="black" cx="387" cy="-180" rx="27" ry="18"/>
<text text-anchor="middle" x="387" y="-175.32" font-family="Times,serif" font-size="14.00">l</text>
</g>
<!-- h&#45;&#45;l -->
<g id="edge17" class="edge">
<title>h&#45;&#45;l</title>
<path fill="none" stroke="black" d="M322.51,-196.59C334.62,-193.43 349.19,-189.62 361.31,-186.45"/>
</g>
<!-- i&#45;&#45;j -->
<g id="edge18" class="edge">
<title>i&#45;&#45;j</title>
<path fill="none" stroke="black" d="M297,-130.51C297,-124.72 297,-118.93 297,-113.14"/>
</g>
<!-- i&#45;&#45;l -->
<g id="edge19" class="edge">
<title>i&#45;&#45;l</title>
<path fill="none" stroke="black" d="M321.12,-157.14C333.95,-161.67 349.87,-167.27 362.73,-171.8"/>
</g>
<!-- m -->
<g id="node14" class="node">
<title>m</title>
<ellipse fill="none" stroke="black" cx="387" cy="-126" rx="27" ry="18"/>
<text text-anchor="middle" x="387" y="-121.33" font-family="Times,serif" font-size="14.00">m</text>
</g>
<!-- i&#45;&#45;m -->
<g id="edge20" class="edge">
<title>i&#45;&#45;m</title>
<path fill="none" stroke="black" d="M322.51,-142.59C334.62,-139.43 349.19,-135.62 361.31,-132.45"/>
</g>
<!-- j&#45;&#45;k -->
<g id="edge21" class="edge">
<title>j&#45;&#45;k</title>
<path fill="none" stroke="black" d="M297,-76.51C297,-70.72 297,-64.93 297,-59.14"/>
</g>
<!-- j&#45;&#45;m -->
<g id="edge22" class="edge">
<title>j&#45;&#45;m</title>
<path fill="none" stroke="black" d="M321.12,-103.14C333.95,-107.67 349.87,-113.27 362.73,-117.8"/>
</g>
<!-- n -->
<g id="node15" class="node">
<title>n</title>
<ellipse fill="none" stroke="black" cx="387" cy="-72" rx="27" ry="18"/>
<text text-anchor="middle" x="387" y="-67.33" font-family="Times,serif" font-size="14.00">n</text>
</g>
<!-- j&#45;&#45;n -->
<g id="edge23" class="edge">
<title>j&#45;&#45;n</title>
<path fill="none" stroke="black" d="M322.51,-88.59C334.62,-85.43 349.19,-81.62 361.31,-78.45"/>
</g>
<!-- k&#45;&#45;n -->
<g id="edge24" class="edge">
<title>k&#45;&#45;n</title>
<path fill="none" stroke="black" d="M321.12,-49.14C333.95,-53.67 349.87,-59.27 362.73,-63.8"/>
</g>
<!-- r -->
<g id="node16" class="node">
<title>r</title>
<ellipse fill="none" stroke="black" cx="477" cy="-18" rx="27" ry="18"/>
<text text-anchor="middle" x="477" y="-13.32" font-family="Times,serif" font-size="14.00">r</text>
</g>
<!-- k&#45;&#45;r -->
<g id="edge25" class="edge">
<title>k&#45;&#45;r</title>
<path fill="none" stroke="black" d="M323.88,-37.66C357.63,-33.29 416.32,-25.71 450.09,-21.35"/>
</g>
<!-- p -->
<g id="node17" class="node">
<title>p</title>
<ellipse fill="none" stroke="black" cx="477" cy="-126" rx="27" ry="18"/>
<text text-anchor="middle" x="477" y="-121.33" font-family="Times,serif" font-size="14.00">p</text>
</g>
<!-- o&#45;&#45;p -->
<g id="edge33" class="edge">
<title>o&#45;&#45;p</title>
<path fill="none" stroke="black" d="M477,-161.51C477,-155.72 477,-149.93 477,-144.14"/>
</g>
<!-- s -->
<g id="node19" class="node">
<title>s</title>
<ellipse fill="none" stroke="black" cx="567" cy="-126" rx="27" ry="18"/>
<text text-anchor="middle" x="567" y="-121.33" font-family="Times,serif" font-size="14.00">s</text>
</g>
<!-- o&#45;&#45;s -->
<g id="edge34" class="edge">
<title>o&#45;&#45;s</title>
<path fill="none" stroke="black" d="M497.53,-168.02C512.11,-159.07 531.95,-146.89 546.52,-137.95"/>
</g>
<!-- l&#45;&#45;o -->
<g id="edge26" class="edge">
<title>l&#45;&#45;o</title>
<path fill="none" stroke="black" d="M414.4,-180C425.54,-180 438.48,-180 449.62,-180"/>
</g>
<!-- l&#45;&#45;m -->
<g id="edge27" class="edge">
<title>l&#45;&#45;m</title>
<path fill="none" stroke="black" d="M387,-161.51C387,-155.72 387,-149.93 387,-144.14"/>
</g>
<!-- m&#45;&#45;o -->
<g id="edge28" class="edge">
<title>m&#45;&#45;o</title>
<path fill="none" stroke="black" d="M407.53,-137.98C422.11,-146.93 441.95,-159.11 456.52,-168.05"/>
</g>
<!-- m&#45;&#45;n -->
<g id="edge29" class="edge">
<title>m&#45;&#45;n</title>
<path fill="none" stroke="black" d="M387,-107.51C387,-101.72 387,-95.93 387,-90.14"/>
</g>
<!-- m&#45;&#45;p -->
<g id="edge30" class="edge">
<title>m&#45;&#45;p</title>
<path fill="none" stroke="black" d="M414.4,-126C425.54,-126 438.48,-126 449.62,-126"/>
</g>
<!-- n&#45;&#45;r -->
<g id="edge31" class="edge">
<title>n&#45;&#45;r</title>
<path fill="none" stroke="black" d="M407.53,-60.02C422.11,-51.07 441.95,-38.89 456.52,-29.95"/>
</g>
<!-- q -->
<g id="node18" class="node">
<title>q</title>
<ellipse fill="none" stroke="black" cx="477" cy="-72" rx="27" ry="18"/>
<text text-anchor="middle" x="477" y="-67.33" font-family="Times,serif" font-size="14.00">q</text>
</g>
<!-- n&#45;&#45;q -->
<g id="edge32" class="edge">
<title>n&#45;&#45;q</title>
<path fill="none" stroke="black" d="M414.4,-72C425.54,-72 438.48,-72 449.62,-72"/>
</g>
<!-- t -->
<g id="node20" class="node">
<title>t</title>
<ellipse fill="none" stroke="black" cx="567" cy="-72" rx="27" ry="18"/>
<text text-anchor="middle" x="567" y="-67.33" font-family="Times,serif" font-size="14.00">t</text>
</g>
<!-- r&#45;&#45;t -->
<g id="edge40" class="edge">
<title>r&#45;&#45;t</title>
<path fill="none" stroke="black" d="M497.53,-29.98C512.11,-38.93 531.95,-51.11 546.52,-60.05"/>
</g>
<!-- p&#45;&#45;q -->
<g id="edge35" class="edge">
<title>p&#45;&#45;q</title>
<path fill="none" stroke="black" d="M477,-107.51C477,-101.72 477,-95.93 477,-90.14"/>
</g>
<!-- p&#45;&#45;s -->
<g id="edge36" class="edge">
<title>p&#45;&#45;s</title>
<path fill="none" stroke="black" d="M504.4,-126C515.54,-126 528.48,-126 539.62,-126"/>
</g>
<!-- p&#45;&#45;t -->
<g id="edge37" class="edge">
<title>p&#45;&#45;t</title>
<path fill="none" stroke="black" d="M497.53,-114.02C512.11,-105.07 531.95,-92.89 546.52,-83.95"/>
</g>
<!-- q&#45;&#45;r -->
<g id="edge38" class="edge">
<title>q&#45;&#45;r</title>
<path fill="none" stroke="black" d="M477,-53.51C477,-47.72 477,-41.93 477,-36.14"/>
</g>
<!-- q&#45;&#45;t -->
<g id="edge39" class="edge">
<title>q&#45;&#45;t</title>
<path fill="none" stroke="black" d="M504.4,-72C515.54,-72 528.48,-72 539.62,-72"/>
</g>
<!-- z -->
<g id="node21" class="node">
<title>z</title>
<ellipse fill="none" stroke="black" cx="657" cy="-99" rx="27" ry="18"/>
<text text-anchor="middle" x="657" y="-94.33" font-family="Times,serif" font-size="14.00">z</text>
</g>
<!-- s&#45;&#45;z -->
<g id="edge41" class="edge">
<title>s&#45;&#45;z</title>
<path fill="none" stroke="black" d="M592.05,-118.62C604.46,-114.81 619.57,-110.18 631.98,-106.37"/>
</g>
<!-- t&#45;&#45;z -->
<g id="edge42" class="edge">
<title>t&#45;&#45;z</title>
<path fill="none" stroke="black" d="M592.05,-79.38C604.46,-83.19 619.57,-87.82 631.98,-91.63"/>
</g>
</g>
</svg>
