<?xml version="1.0" encoding="UTF-8" standalone="no"?>
<!DOCTYPE svg PUBLIC "-//W3C//DTD SVG 1.1//EN"
 "http://www.w3.org/Graphics/SVG/1.1/DTD/svg11.dtd">
<!-- Generated by graphviz version 8.1.0 (0)
 -->
<!-- Title: Vulkan Pages: 1 -->
<svg width="1867pt" height="762pt"
 viewBox="0.00 0.00 1866.50 762.00" xmlns="http://www.w3.org/2000/svg" xmlns:xlink="http://www.w3.org/1999/xlink">
<g id="graph0" class="graph" transform="scale(1 1) rotate(0) translate(4 758)">
<title>Vulkan</title>
<polygon fill="white" stroke="none" points="-4,4 -4,-758 1862.5,-758 1862.5,4 -4,4"/>
<g id="clust1" class="cluster">
<title>cluster_1</title>
<polygon fill="none" stroke="black" points="433.5,-189 433.5,-268 905.62,-268 905.62,-189 433.5,-189"/>
<text text-anchor="middle" x="669.56" y="-250.7" font-family="Times,serif" font-size="14.00">1. Create Window</text>
</g>
<g id="clust2" class="cluster">
<title>cluster_2</title>
<polygon fill="none" stroke="black" points="72.12,-8 72.12,-181 1189.38,-181 1189.38,-8 72.12,-8"/>
<text text-anchor="middle" x="630.75" y="-163.7" font-family="Times,serif" font-size="14.00">2. Create an Instance</text>
</g>
<g id="clust3" class="cluster">
<title>cluster_3</title>
<polygon fill="none" stroke="black" points="13.25,-276 13.25,-369 897.38,-369 897.38,-276 13.25,-276"/>
<text text-anchor="middle" x="455.31" y="-351.7" font-family="Times,serif" font-size="14.00">3. Check Validation Layer Support</text>
</g>
<g id="clust4" class="cluster">
<title>cluster_4</title>
<polygon fill="none" stroke="black" points="8,-377 8,-551 692,-551 692,-377 8,-377"/>
<text text-anchor="middle" x="350" y="-533.7" font-family="Times,serif" font-size="14.00">4. Setup Debug Messenger</text>
</g>
<g id="clust5" class="cluster">
<title>cluster_5</title>
<polygon fill="none" stroke="black" points="993.12,-189 993.12,-268 1392.12,-268 1392.12,-189 993.12,-189"/>
<text text-anchor="middle" x="1192.62" y="-250.7" font-family="Times,serif" font-size="14.00">5. Create Surface</text>
</g>
<g id="clust6" class="cluster">
<title>cluster_6</title>
<polygon fill="none" stroke="black" points="44,-559 44,-746 1850.5,-746 1850.5,-559 44,-559"/>
<text text-anchor="middle" x="947.25" y="-728.7" font-family="Times,serif" font-size="14.00">6. Pick Physical Device</text>
</g>
<!-- glfwCreateWindow -->
<g id="node1" class="node">
<title>glfwCreateWindow</title>
<polygon fill="none" stroke="blue" points="441.5,-198 441.5,-234 593.25,-234 593.25,-198 441.5,-198"/>
<text text-anchor="middle" x="517.38" y="-211.7" font-family="Times,serif" font-size="14.00">glfwCreateWindow</text>
</g>
<!-- GLFWwindow -->
<g id="node2" class="node">
<title>GLFWwindow</title>
<polygon fill="none" stroke="black" points="782.62,-198 782.62,-234 897.62,-234 897.62,-198 782.62,-198"/>
<text text-anchor="middle" x="840.12" y="-211.7" font-family="Times,serif" font-size="14.00">GLFWwindow</text>
</g>
<!-- glfwCreateWindow&#45;&gt;GLFWwindow -->
<g id="edge1" class="edge">
<title>glfwCreateWindow&#45;&gt;GLFWwindow</title>
<path fill="none" stroke="black" d="M593.17,-216C647.27,-216 719.73,-216 771.97,-216"/>
<polygon fill="black" stroke="black" points="771.8,-219.5 781.8,-216 771.8,-212.5 771.8,-219.5"/>
</g>
<!-- glfwCreateWindowSurface -->
<g id="node15" class="node">
<title>glfwCreateWindowSurface</title>
<polygon fill="none" stroke="blue" points="1001.12,-198 1001.12,-234 1207.62,-234 1207.62,-198 1001.12,-198"/>
<text text-anchor="middle" x="1104.38" y="-211.7" font-family="Times,serif" font-size="14.00">glfwCreateWindowSurface</text>
</g>
<!-- GLFWwindow&#45;&gt;glfwCreateWindowSurface -->
<g id="edge11" class="edge">
<title>GLFWwindow&#45;&gt;glfwCreateWindowSurface</title>
<path fill="none" stroke="black" d="M897.38,-216C924.56,-216 958.2,-216 990.35,-216"/>
<polygon fill="black" stroke="black" points="990.18,-219.5 1000.18,-216 990.18,-212.5 990.18,-219.5"/>
</g>
<!-- VkInstanceCreateInfo -->
<g id="node3" class="node">
<title>VkInstanceCreateInfo</title>
<polygon fill="none" stroke="red" points="80.12,-73 80.12,-109 250.62,-109 250.62,-73 80.12,-73"/>
<text text-anchor="middle" x="165.38" y="-86.7" font-family="Times,serif" font-size="14.00">VkInstanceCreateInfo</text>
</g>
<!-- VkInstanceCreateInfoContent -->
<g id="node4" class="node">
<title>VkInstanceCreateInfoContent</title>
<polygon fill="none" stroke="black" points="424.25,-16.12 424.25,-91.88 610.5,-91.88 610.5,-16.12 424.25,-16.12"/>
<text text-anchor="middle" x="517.38" y="-74.58" font-family="Times,serif" font-size="14.00">Application Info</text>
<polyline fill="none" stroke="black" points="424.25,-66.62 610.5,-66.62"/>
<text text-anchor="middle" x="517.38" y="-49.33" font-family="Times,serif" font-size="14.00">Extension Names</text>
<polyline fill="none" stroke="black" points="424.25,-41.38 610.5,-41.38"/>
<text text-anchor="middle" x="517.38" y="-24.07" font-family="Times,serif" font-size="14.00">Validation Layer Names</text>
</g>
<!-- VkInstanceCreateInfo&#45;&gt;VkInstanceCreateInfoContent -->
<g id="edge2" class="edge">
<title>VkInstanceCreateInfo&#45;&gt;VkInstanceCreateInfoContent</title>
<path fill="none" stroke="black" d="M250.21,-82.14C299.2,-76.96 361.43,-70.38 413.39,-64.89"/>
<polygon fill="black" stroke="black" points="413.74,-68.26 423.31,-63.73 413,-61.3 413.74,-68.26"/>
</g>
<!-- vkCreateInstance -->
<g id="node7" class="node">
<title>vkCreateInstance</title>
<polygon fill="none" stroke="blue" points="446.75,-111 446.75,-147 588,-147 588,-111 446.75,-111"/>
<text text-anchor="middle" x="517.38" y="-124.7" font-family="Times,serif" font-size="14.00">vkCreateInstance</text>
</g>
<!-- VkInstanceCreateInfo&#45;&gt;vkCreateInstance -->
<g id="edge5" class="edge">
<title>VkInstanceCreateInfo&#45;&gt;vkCreateInstance</title>
<path fill="none" stroke="black" d="M250.21,-100.1C306.52,-106.22 380.3,-114.23 435.9,-120.26"/>
<polygon fill="black" stroke="black" points="435.44,-123.84 445.76,-121.44 436.2,-116.88 435.44,-123.84"/>
</g>
<!-- VkApplicationInfo -->
<g id="node5" class="node">
<title>VkApplicationInfo</title>
<polygon fill="none" stroke="red" points="769.12,-56 769.12,-92 911.12,-92 911.12,-56 769.12,-56"/>
<text text-anchor="middle" x="840.12" y="-69.7" font-family="Times,serif" font-size="14.00">VkApplicationInfo</text>
</g>
<!-- VkInstanceCreateInfoContent&#45;&gt;VkApplicationInfo -->
<g id="edge3" class="edge">
<title>VkInstanceCreateInfoContent:VkApplicationInfo&#45;&gt;VkApplicationInfo</title>
<path fill="none" stroke="black" d="M611.38,-79C660.23,-79 714.97,-77.84 758.53,-76.63"/>
<polygon fill="black" stroke="black" points="758.46,-80.11 768.36,-76.32 758.26,-73.11 758.46,-80.11"/>
</g>
<!-- VkApplicationInfoContent -->
<g id="node6" class="node">
<title>VkApplicationInfoContent</title>
<polygon fill="none" stroke="black" points="1027.38,-23.5 1027.38,-124.5 1181.38,-124.5 1181.38,-23.5 1027.38,-23.5"/>
<text text-anchor="middle" x="1104.38" y="-107.2" font-family="Times,serif" font-size="14.00">Application Name</text>
<polyline fill="none" stroke="black" points="1027.38,-99.25 1181.38,-99.25"/>
<text text-anchor="middle" x="1104.38" y="-81.95" font-family="Times,serif" font-size="14.00">Application Version</text>
<polyline fill="none" stroke="black" points="1027.38,-74 1181.38,-74"/>
<text text-anchor="middle" x="1104.38" y="-56.7" font-family="Times,serif" font-size="14.00">Engine Version</text>
<polyline fill="none" stroke="black" points="1027.38,-48.75 1181.38,-48.75"/>
<text text-anchor="middle" x="1104.38" y="-31.45" font-family="Times,serif" font-size="14.00">Api Version</text>
</g>
<!-- VkApplicationInfo&#45;&gt;VkApplicationInfoContent -->
<g id="edge4" class="edge">
<title>VkApplicationInfo&#45;&gt;VkApplicationInfoContent</title>
<path fill="none" stroke="black" d="M911.06,-74C943.51,-74 982.4,-74 1016.7,-74"/>
<polygon fill="black" stroke="black" points="1016.65,-77.5 1026.65,-74 1016.65,-70.5 1016.65,-77.5"/>
</g>
<!-- VkInstance -->
<g id="node8" class="node">
<title>VkInstance</title>
<polygon fill="none" stroke="darkorange" points="792.75,-111 792.75,-147 887.5,-147 887.5,-111 792.75,-111"/>
<text text-anchor="middle" x="840.12" y="-124.7" font-family="Times,serif" font-size="14.00">VkInstance</text>
</g>
<!-- vkCreateInstance&#45;&gt;VkInstance -->
<g id="edge6" class="edge">
<title>vkCreateInstance&#45;&gt;VkInstance</title>
<path fill="none" stroke="black" d="M587.97,-129C646.06,-129 727.84,-129 782.11,-129"/>
<polygon fill="black" stroke="black" points="781.92,-132.5 791.92,-129 781.92,-125.5 781.92,-132.5"/>
</g>
<!-- VkInstance&#45;&gt;glfwCreateWindowSurface -->
<g id="edge13" class="edge">
<title>VkInstance&#45;&gt;glfwCreateWindowSurface</title>
<path fill="none" stroke="black" d="M887.03,-146.99C917.01,-158.47 957.14,-173.33 993.12,-185 1003.66,-188.42 1014.83,-191.81 1025.86,-195.04"/>
<polygon fill="black" stroke="black" points="1024.79,-198.66 1035.37,-198.07 1026.73,-191.93 1024.79,-198.66"/>
</g>
<!-- vkEnumerateInstanceLayerProperties -->
<g id="node9" class="node">
<title>vkEnumerateInstanceLayerProperties</title>
<polygon fill="none" stroke="blue" points="21.25,-292 21.25,-328 309.5,-328 309.5,-292 21.25,-292"/>
<text text-anchor="middle" x="165.38" y="-305.7" font-family="Times,serif" font-size="14.00">vkEnumerateInstanceLayerProperties</text>
</g>
<!-- VkLayerProperties -->
<g id="node10" class="node">
<title>VkLayerProperties</title>
<polygon fill="none" stroke="red" points="442.62,-292 442.62,-328 592.12,-328 592.12,-292 442.62,-292"/>
<text text-anchor="middle" x="517.38" y="-305.7" font-family="Times,serif" font-size="14.00">VkLayerProperties</text>
</g>
<!-- vkEnumerateInstanceLayerProperties&#45;&gt;VkLayerProperties -->
<g id="edge7" class="edge">
<title>vkEnumerateInstanceLayerProperties&#45;&gt;VkLayerProperties</title>
<path fill="none" stroke="black" d="M309.49,-310C351.27,-310 395.56,-310 432.39,-310"/>
<polygon fill="black" stroke="black" points="432.07,-313.5 442.07,-310 432.07,-306.5 432.07,-313.5"/>
</g>
<!-- VkLayerPropertiesContent -->
<g id="node11" class="node">
<title>VkLayerPropertiesContent</title>
<polygon fill="none" stroke="black" points="790.88,-284.75 790.88,-335.25 889.38,-335.25 889.38,-284.75 790.88,-284.75"/>
<text text-anchor="middle" x="840.12" y="-317.95" font-family="Times,serif" font-size="14.00">Name</text>
<polyline fill="none" stroke="black" points="790.88,-310 889.38,-310"/>
<text text-anchor="middle" x="840.12" y="-292.7" font-family="Times,serif" font-size="14.00">Description</text>
</g>
<!-- VkLayerProperties&#45;&gt;VkLayerPropertiesContent -->
<g id="edge8" class="edge">
<title>VkLayerProperties&#45;&gt;VkLayerPropertiesContent</title>
<path fill="none" stroke="black" d="M591.96,-310C649.12,-310 727.31,-310 780.34,-310"/>
<polygon fill="black" stroke="black" points="780.25,-313.5 790.25,-310 780.25,-306.5 780.25,-313.5"/>
</g>
<!-- vkCreateDebugUtilsMessengerEXT -->
<g id="node12" class="node">
<title>vkCreateDebugUtilsMessengerEXT</title>
<polygon fill="none" stroke="blue" points="382.62,-386 382.62,-422 652.12,-422 652.12,-386 382.62,-386"/>
<text text-anchor="middle" x="517.38" y="-399.7" font-family="Times,serif" font-size="14.00">vkCreateDebugUtilsMessengerEXT</text>
</g>
<!-- VkDebugUtilsMessengerCreateInfoEXTContent -->
<g id="node13" class="node">
<title>VkDebugUtilsMessengerCreateInfoEXTContent</title>
<polygon fill="none" stroke="black" points="350.75,-441.12 350.75,-516.88 684,-516.88 684,-441.12 350.75,-441.12"/>
<text text-anchor="middle" x="517.38" y="-499.57" font-family="Times,serif" font-size="14.00">Message Severity (Warning, Error, ...)</text>
<polyline fill="none" stroke="black" points="350.75,-491.62 684,-491.62"/>
<text text-anchor="middle" x="517.38" y="-474.32" font-family="Times,serif" font-size="14.00">Message Type (Validation, Performance, ...)</text>
<polyline fill="none" stroke="black" points="350.75,-466.38 684,-466.38"/>
<text text-anchor="middle" x="517.38" y="-449.07" font-family="Times,serif" font-size="14.00">Callback Function (e.g. print error message)</text>
</g>
<!-- VkDebugUtilsMessengerCreateInfoEXT -->
<g id="node14" class="node">
<title>VkDebugUtilsMessengerCreateInfoEXT</title>
<polygon fill="none" stroke="red" points="16,-423 16,-459 314.75,-459 314.75,-423 16,-423"/>
<text text-anchor="middle" x="165.38" y="-436.7" font-family="Times,serif" font-size="14.00">VkDebugUtilsMessengerCreateInfoEXT</text>
</g>
<!-- VkDebugUtilsMessengerCreateInfoEXT&#45;&gt;vkCreateDebugUtilsMessengerEXT -->
<g id="edge10" class="edge">
<title>VkDebugUtilsMessengerCreateInfoEXT&#45;&gt;vkCreateDebugUtilsMessengerEXT</title>
<path fill="none" stroke="black" d="M314.55,-425.34C333.58,-423.32 353.04,-421.27 372,-419.26"/>
<polygon fill="black" stroke="black" points="372.21,-422.65 381.79,-418.12 371.47,-415.69 372.21,-422.65"/>
</g>
<!-- VkDebugUtilsMessengerCreateInfoEXT&#45;&gt;VkDebugUtilsMessengerCreateInfoEXTContent -->
<g id="edge9" class="edge">
<title>VkDebugUtilsMessengerCreateInfoEXT&#45;&gt;VkDebugUtilsMessengerCreateInfoEXTContent</title>
<path fill="none" stroke="black" d="M314.55,-457.09C323.01,-458.01 331.55,-458.93 340.09,-459.86"/>
<polygon fill="black" stroke="black" points="339.59,-463.44 349.91,-461.04 340.35,-456.48 339.59,-463.44"/>
</g>
<!-- VkSurfaceKHR -->
<g id="node16" class="node">
<title>VkSurfaceKHR</title>
<polygon fill="none" stroke="darkorange" points="1262.38,-198 1262.38,-234 1384.12,-234 1384.12,-198 1262.38,-198"/>
<text text-anchor="middle" x="1323.25" y="-211.7" font-family="Times,serif" font-size="14.00">VkSurfaceKHR</text>
</g>
<!-- glfwCreateWindowSurface&#45;&gt;VkSurfaceKHR -->
<g id="edge12" class="edge">
<title>glfwCreateWindowSurface&#45;&gt;VkSurfaceKHR</title>
<path fill="none" stroke="black" d="M1207.46,-216C1222.52,-216 1237.74,-216 1251.96,-216"/>
<polygon fill="black" stroke="black" points="1251.62,-219.5 1261.62,-216 1251.62,-212.5 1251.62,-219.5"/>
</g>
<!-- vkEnumeratePhysicalDevices -->
<g id="node17" class="node">
<title>vkEnumeratePhysicalDevices</title>
<polygon fill="none" stroke="blue" points="52,-623 52,-659 278.75,-659 278.75,-623 52,-623"/>
<text text-anchor="middle" x="165.38" y="-636.7" font-family="Times,serif" font-size="14.00">vkEnumeratePhysicalDevices</text>
</g>
<!-- VkPhysicalDevice -->
<g id="node18" class="node">
<title>VkPhysicalDevice</title>
<polygon fill="none" stroke="red" points="446.75,-623 446.75,-659 588,-659 588,-623 446.75,-623"/>
<text text-anchor="middle" x="517.38" y="-636.7" font-family="Times,serif" font-size="14.00">VkPhysicalDevice</text>
</g>
<!-- vkEnumeratePhysicalDevices&#45;&gt;VkPhysicalDevice -->
<g id="edge14" class="edge">
<title>vkEnumeratePhysicalDevices&#45;&gt;VkPhysicalDevice</title>
<path fill="none" stroke="black" d="M278.56,-641C329.74,-641 389.19,-641 435.85,-641"/>
<polygon fill="black" stroke="black" points="435.81,-644.5 445.81,-641 435.81,-637.5 435.81,-644.5"/>
</g>
<!-- vkGetPhysicalDeviceProperties -->
<g id="node23" class="node">
<title>vkGetPhysicalDeviceProperties</title>
<polygon fill="none" stroke="blue" points="720,-592 720,-628 960.25,-628 960.25,-592 720,-592"/>
<text text-anchor="middle" x="840.12" y="-605.7" font-family="Times,serif" font-size="14.00">vkGetPhysicalDeviceProperties</text>
</g>
<!-- VkPhysicalDevice&#45;&gt;vkGetPhysicalDeviceProperties -->
<g id="edge18" class="edge">
<title>VkPhysicalDevice&#45;&gt;vkGetPhysicalDeviceProperties</title>
<path fill="none" stroke="black" d="M587.97,-634.27C623.48,-630.84 667.84,-626.55 709.36,-622.54"/>
<polygon fill="black" stroke="black" points="709.52,-625.95 719.13,-621.5 708.84,-618.98 709.52,-625.95"/>
</g>
<!-- vkGetPhysicalDeviceFeatures -->
<g id="node26" class="node">
<title>vkGetPhysicalDeviceFeatures</title>
<polygon fill="none" stroke="blue" points="726,-654 726,-690 954.25,-690 954.25,-654 726,-654"/>
<text text-anchor="middle" x="840.12" y="-667.7" font-family="Times,serif" font-size="14.00">vkGetPhysicalDeviceFeatures</text>
</g>
<!-- VkPhysicalDevice&#45;&gt;vkGetPhysicalDeviceFeatures -->
<g id="edge21" class="edge">
<title>VkPhysicalDevice&#45;&gt;vkGetPhysicalDeviceFeatures</title>
<path fill="none" stroke="black" d="M587.97,-647.73C625.17,-651.32 672.08,-655.86 715.27,-660.03"/>
<polygon fill="black" stroke="black" points="714.87,-663.6 725.16,-661.08 715.54,-656.64 714.87,-663.6"/>
</g>
<!-- VkPhysicalDeviceProperties -->
<g id="node19" class="node">
<title>VkPhysicalDeviceProperties</title>
<polygon fill="none" stroke="red" points="996.25,-590 996.25,-626 1212.5,-626 1212.5,-590 996.25,-590"/>
<text text-anchor="middle" x="1104.38" y="-603.7" font-family="Times,serif" font-size="14.00">VkPhysicalDeviceProperties</text>
</g>
<!-- VkPhysicalDevicePropertiesContent -->
<g id="node20" class="node">
<title>VkPhysicalDevicePropertiesContent</title>
<polygon fill="none" stroke="black" points="1279.62,-567.12 1279.62,-642.88 1366.88,-642.88 1366.88,-567.12 1279.62,-567.12"/>
<text text-anchor="middle" x="1323.25" y="-625.58" font-family="Times,serif" font-size="14.00">Vendor ID</text>
<polyline fill="none" stroke="black" points="1279.62,-617.62 1366.88,-617.62"/>
<text text-anchor="middle" x="1323.25" y="-600.33" font-family="Times,serif" font-size="14.00">Device ID</text>
<polyline fill="none" stroke="black" points="1279.62,-592.38 1366.88,-592.38"/>
<text text-anchor="middle" x="1323.25" y="-575.08" font-family="Times,serif" font-size="14.00">Limits</text>
</g>
<!-- VkPhysicalDeviceProperties&#45;&gt;VkPhysicalDevicePropertiesContent -->
<g id="edge17" class="edge">
<title>VkPhysicalDeviceProperties&#45;&gt;VkPhysicalDevicePropertiesContent</title>
<path fill="none" stroke="black" d="M1212.22,-606.52C1231.87,-606.25 1251.59,-605.98 1268.79,-605.74"/>
<polygon fill="black" stroke="black" points="1268.76,-609.23 1278.71,-605.59 1268.66,-602.23 1268.76,-609.23"/>
</g>
<!-- VkPhysicalDeviceLimits -->
<g id="node21" class="node">
<title>VkPhysicalDeviceLimits</title>
<polygon fill="none" stroke="black" points="1434,-571 1434,-607 1620.25,-607 1620.25,-571 1434,-571"/>
<text text-anchor="middle" x="1527.12" y="-584.7" font-family="Times,serif" font-size="14.00">VkPhysicalDeviceLimits</text>
</g>
<!-- VkPhysicalDevicePropertiesContent&#45;&gt;VkPhysicalDeviceLimits -->
<g id="edge15" class="edge">
<title>VkPhysicalDevicePropertiesContent:limits&#45;&gt;VkPhysicalDeviceLimits</title>
<path fill="none" stroke="black" d="M1368.25,-580C1386.15,-580 1405.17,-580.58 1423.59,-581.45"/>
<polygon fill="black" stroke="black" points="1423.18,-584.99 1433.35,-582 1423.53,-578 1423.18,-584.99"/>
</g>
<!-- VkPhysicalDeviceLimitsContents -->
<g id="node22" class="node">
<title>VkPhysicalDeviceLimitsContents</title>
<polygon fill="none" stroke="black" points="1656.25,-567.75 1656.25,-618.25 1842.5,-618.25 1842.5,-567.75 1656.25,-567.75"/>
<text text-anchor="middle" x="1749.38" y="-600.95" font-family="Times,serif" font-size="14.00">maxImageDimension1D</text>
<polyline fill="none" stroke="black" points="1656.25,-593 1842.5,-593"/>
<text text-anchor="middle" x="1749.38" y="-575.7" font-family="Times,serif" font-size="14.00">maxImageDimension2D</text>
</g>
<!-- VkPhysicalDeviceLimits&#45;&gt;VkPhysicalDeviceLimitsContents -->
<g id="edge16" class="edge">
<title>VkPhysicalDeviceLimits&#45;&gt;VkPhysicalDeviceLimitsContents</title>
<path fill="none" stroke="black" d="M1619.94,-590.67C1628.4,-590.82 1637.02,-590.98 1645.57,-591.13"/>
<polygon fill="black" stroke="black" points="1645.3,-594.65 1655.36,-591.33 1645.42,-587.65 1645.3,-594.65"/>
</g>
<!-- vkGetPhysicalDeviceProperties&#45;&gt;VkPhysicalDeviceProperties -->
<g id="edge19" class="edge">
<title>vkGetPhysicalDeviceProperties&#45;&gt;VkPhysicalDeviceProperties</title>
<path fill="none" stroke="black" d="M959.97,-609.09C968.55,-609.03 977.2,-608.96 985.76,-608.9"/>
<polygon fill="black" stroke="black" points="985.59,-612.39 995.57,-608.81 985.54,-605.39 985.59,-612.39"/>
</g>
<!-- VkPhysicalDeviceFeatures -->
<g id="node24" class="node">
<title>VkPhysicalDeviceFeatures</title>
<polygon fill="none" stroke="red" points="1002.25,-667 1002.25,-703 1206.5,-703 1206.5,-667 1002.25,-667"/>
<text text-anchor="middle" x="1104.38" y="-680.7" font-family="Times,serif" font-size="14.00">VkPhysicalDeviceFeatures</text>
</g>
<!-- VkPhysicalDeviceFeaturesContent -->
<g id="node25" class="node">
<title>VkPhysicalDeviceFeaturesContent</title>
<polygon fill="none" stroke="black" points="1248.5,-661.75 1248.5,-712.25 1398,-712.25 1398,-661.75 1248.5,-661.75"/>
<text text-anchor="middle" x="1323.25" y="-694.95" font-family="Times,serif" font-size="14.00">geometryShader</text>
<polyline fill="none" stroke="black" points="1248.5,-687 1398,-687"/>
<text text-anchor="middle" x="1323.25" y="-669.7" font-family="Times,serif" font-size="14.00">tessellationShader</text>
</g>
<!-- VkPhysicalDeviceFeatures&#45;&gt;VkPhysicalDeviceFeaturesContent -->
<g id="edge20" class="edge">
<title>VkPhysicalDeviceFeatures&#45;&gt;VkPhysicalDeviceFeaturesContent</title>
<path fill="none" stroke="black" d="M1206.19,-685.93C1216.78,-686.03 1227.47,-686.13 1237.85,-686.22"/>
<polygon fill="black" stroke="black" points="1237.51,-689.73 1247.54,-686.32 1237.57,-682.73 1237.51,-689.73"/>
</g>
<!-- vkGetPhysicalDeviceFeatures&#45;&gt;VkPhysicalDeviceFeatures -->
<g id="edge22" class="edge">
<title>vkGetPhysicalDeviceFeatures&#45;&gt;VkPhysicalDeviceFeatures</title>
<path fill="none" stroke="black" d="M954.25,-677.61C966.68,-678.22 979.34,-678.85 991.76,-679.47"/>
<polygon fill="black" stroke="black" points="991.44,-683.01 1001.6,-680 991.79,-676.01 991.44,-683.01"/>
</g>
</g>
</svg>
