<?xml version="1.0" encoding="UTF-8" standalone="no"?>
<!DOCTYPE svg PUBLIC "-//W3C//DTD SVG 1.1//EN"
 "http://www.w3.org/Graphics/SVG/1.1/DTD/svg11.dtd">
<!-- Generated by graphviz version 10.0.1 (0)
 -->
<!-- Pages: 1 -->
<svg width="195pt" height="312pt"
 viewBox="0.00 0.00 194.50 311.75" xmlns="http://www.w3.org/2000/svg" xmlns:xlink="http://www.w3.org/1999/xlink">
<g id="graph0" class="graph" transform="scale(1 1) rotate(0) translate(4 307.75)">
<polygon fill="white" stroke="none" points="-4,4 -4,-307.75 190.5,-307.75 190.5,4 -4,4"/>
<!-- a -->
<g id="node1" class="node">
<title>a</title>
<ellipse fill="none" stroke="black" cx="40" cy="-285.75" rx="27" ry="18"/>
<text text-anchor="middle" x="40" y="-281.07" font-family="Times,serif" font-size="14.00">a</text>
</g>
<!-- b -->
<g id="node2" class="node">
<title>b</title>
<ellipse fill="none" stroke="black" cx="27" cy="-18" rx="27" ry="18"/>
<text text-anchor="middle" x="27" y="-13.32" font-family="Times,serif" font-size="14.00">b</text>
</g>
<!-- a&#45;&gt;b -->
<g id="edge1" class="edge">
<title>a&#45;&gt;b</title>
<path fill="none" stroke="black" d="M39.06,-267.47C37.77,-243.47 35.38,-198.69 33.5,-160.5 31.58,-121.38 29.53,-76.18 28.26,-47.59"/>
<polygon fill="black" stroke="black" points="31.77,-47.78 27.83,-37.94 24.78,-48.09 31.77,-47.78"/>
<text text-anchor="middle" x="44.25" y="-147.2" font-family="Times,serif" font-size="14.00">0.2</text>
</g>
<!-- c -->
<g id="node3" class="node">
<title>c</title>
<ellipse fill="none" stroke="black" cx="74" cy="-196.5" rx="27" ry="18"/>
<text text-anchor="middle" x="74" y="-191.82" font-family="Times,serif" font-size="14.00">c</text>
</g>
<!-- a&#45;&gt;c -->
<g id="edge2" class="edge">
<title>a&#45;&gt;c</title>
<path fill="none" stroke="black" d="M46.56,-267.93C51.31,-255.74 57.83,-238.99 63.33,-224.88"/>
<polygon fill="black" stroke="black" points="66.55,-226.27 66.92,-215.68 60.02,-223.73 66.55,-226.27"/>
<text text-anchor="middle" x="71.25" y="-236.45" font-family="Times,serif" font-size="14.00">0.4</text>
</g>
<!-- c&#45;&gt;b -->
<g id="edge3" class="edge">
<title>c&#45;&gt;b</title>
<path fill="none" stroke="black" d="M69.49,-178.58C61.41,-148.21 44.36,-84.2 34.49,-47.14"/>
<polygon fill="black" stroke="black" points="37.91,-46.36 31.95,-37.59 31.14,-48.16 37.91,-46.36"/>
<text text-anchor="middle" x="66.25" y="-102.58" font-family="Times,serif" font-size="14.00">0.6</text>
</g>
<!-- e -->
<g id="node4" class="node">
<title>e</title>
<ellipse fill="none" stroke="black" cx="119" cy="-107.25" rx="27" ry="18"/>
<text text-anchor="middle" x="119" y="-102.58" font-family="Times,serif" font-size="14.00">e</text>
</g>
<!-- c&#45;&gt;e -->
<g id="edge4" class="edge">
<title>c&#45;&gt;e</title>
<path fill="none" stroke="black" d="M82.46,-179.09C88.94,-166.54 97.99,-148.98 105.47,-134.49"/>
<polygon fill="black" stroke="black" points="108.41,-136.42 109.88,-125.93 102.19,-133.22 108.41,-136.42"/>
<text text-anchor="middle" x="111.25" y="-147.2" font-family="Times,serif" font-size="14.00">0.6</text>
</g>
<!-- e&#45;&gt;b -->
<g id="edge6" class="edge">
<title>e&#45;&gt;b</title>
<path fill="none" stroke="black" d="M103.81,-91.84C89.21,-77.99 66.94,-56.87 50.13,-40.94"/>
<polygon fill="black" stroke="black" points="52.67,-38.52 43.01,-34.18 47.85,-43.6 52.67,-38.52"/>
<text text-anchor="middle" x="92.25" y="-57.95" font-family="Times,serif" font-size="14.00">0.7</text>
</g>
<!-- e&#45;&gt;e -->
<g id="edge5" class="edge">
<title>e&#45;&gt;e</title>
<path fill="none" stroke="black" d="M143.53,-115.49C154.51,-116.27 164,-113.53 164,-107.25 164,-103.33 160.29,-100.78 154.83,-99.62"/>
<polygon fill="black" stroke="black" points="155.22,-96.14 145.04,-99.09 154.84,-103.13 155.22,-96.14"/>
<text text-anchor="middle" x="175.25" y="-102.58" font-family="Times,serif" font-size="14.00">0.1</text>
</g>
</g>
</svg>
