<?xml version="1.0" encoding="UTF-8" standalone="no"?>
<!DOCTYPE svg PUBLIC "-//W3C//DTD SVG 1.1//EN"
 "http://www.w3.org/Graphics/SVG/1.1/DTD/svg11.dtd">
<!-- Generated by graphviz version 8.1.0 (0)
 -->
<!-- Pages: 1 -->
<svg width="195pt" height="312pt"
 viewBox="0.00 0.00 194.50 311.75" xmlns="http://www.w3.org/2000/svg" xmlns:xlink="http://www.w3.org/1999/xlink">
<g id="graph0" class="graph" transform="scale(1 1) rotate(0) translate(4 307.75)">
<polygon fill="white" stroke="none" points="-4,4 -4,-307.75 190.5,-307.75 190.5,4 -4,4"/>
<!-- a -->
<g id="node1" class="node">
<title>a</title>
<ellipse fill="none" stroke="black" cx="40" cy="-285.75" rx="27" ry="18"/>
<text text-anchor="middle" x="40" y="-281.07" font-family="Times,serif" font-size="14.00">a</text>
</g>
<!-- b -->
<g id="node2" class="node">
<title>b</title>
<ellipse fill="none" stroke="black" cx="27" cy="-18" rx="27" ry="18"/>
<text text-anchor="middle" x="27" y="-13.32" font-family="Times,serif" font-size="14.00">b</text>
</g>
<!-- a&#45;&gt;b -->
<g id="edge1" class="edge">
<title>a&#45;&gt;b</title>
<path fill="none" stroke="black" d="M39.06,-267.47C37.77,-243.47 35.38,-198.69 33.5,-160.5 31.57,-121.21 29.51,-75.77 28.24,-47.21"/>
<polygon fill="black" stroke="black" points="31.7,-47.26 27.76,-37.43 24.71,-47.57 31.7,-47.26"/>
<text text-anchor="middle" x="44.25" y="-147.2" font-family="Times,serif" font-size="14.00">0.2</text>
</g>
<!-- c -->
<g id="node3" class="node">
<title>c</title>
<ellipse fill="none" stroke="black" cx="74" cy="-196.5" rx="27" ry="18"/>
<text text-anchor="middle" x="74" y="-191.82" font-family="Times,serif" font-size="14.00">c</text>
</g>
<!-- a&#45;&gt;c -->
<g id="edge2" class="edge">
<title>a&#45;&gt;c</title>
<path fill="none" stroke="black" d="M46.56,-267.93C51.35,-255.62 57.96,-238.65 63.49,-224.46"/>
<polygon fill="black" stroke="black" points="67.09,-225.86 67.46,-215.27 60.57,-223.32 67.09,-225.86"/>
<text text-anchor="middle" x="71.25" y="-236.45" font-family="Times,serif" font-size="14.00">0.4</text>
</g>
<!-- c&#45;&gt;b -->
<g id="edge3" class="edge">
<title>c&#45;&gt;b</title>
<path fill="none" stroke="black" d="M69.49,-178.58C61.37,-148.08 44.21,-83.65 34.37,-46.66"/>
<polygon fill="black" stroke="black" points="37.52,-45.89 31.56,-37.13 30.75,-47.7 37.52,-45.89"/>
<text text-anchor="middle" x="66.25" y="-102.58" font-family="Times,serif" font-size="14.00">0.6</text>
</g>
<!-- e -->
<g id="node4" class="node">
<title>e</title>
<ellipse fill="none" stroke="black" cx="119" cy="-107.25" rx="27" ry="18"/>
<text text-anchor="middle" x="119" y="-102.58" font-family="Times,serif" font-size="14.00">e</text>
</g>
<!-- c&#45;&gt;e -->
<g id="edge4" class="edge">
<title>c&#45;&gt;e</title>
<path fill="none" stroke="black" d="M82.46,-179.09C89,-166.41 98.17,-148.64 105.69,-134.06"/>
<polygon fill="black" stroke="black" points="109.1,-136.08 110.57,-125.59 102.88,-132.87 109.1,-136.08"/>
<text text-anchor="middle" x="111.25" y="-147.2" font-family="Times,serif" font-size="14.00">0.6</text>
</g>
<!-- e&#45;&gt;b -->
<g id="edge6" class="edge">
<title>e&#45;&gt;b</title>
<path fill="none" stroke="black" d="M103.81,-91.84C89.07,-77.87 66.53,-56.49 49.67,-40.5"/>
<polygon fill="black" stroke="black" points="52.57,-38.48 42.91,-34.14 47.76,-43.56 52.57,-38.48"/>
<text text-anchor="middle" x="92.25" y="-57.95" font-family="Times,serif" font-size="14.00">0.7</text>
</g>
<!-- e&#45;&gt;e -->
<g id="edge5" class="edge">
<title>e&#45;&gt;e</title>
<path fill="none" stroke="black" d="M143.53,-115.49C154.51,-116.27 164,-113.53 164,-107.25 164,-103.23 160.1,-100.66 154.42,-99.54"/>
<polygon fill="black" stroke="black" points="154.69,-96 144.53,-99.01 154.35,-102.99 154.69,-96"/>
<text text-anchor="middle" x="175.25" y="-102.58" font-family="Times,serif" font-size="14.00">0.1</text>
</g>
</g>
</svg>
