<?xml version="1.0" encoding="UTF-8" standalone="no"?>
<!DOCTYPE svg PUBLIC "-//W3C//DTD SVG 1.1//EN"
 "http://www.w3.org/Graphics/SVG/1.1/DTD/svg11.dtd">
<!-- Generated by graphviz version 10.0.1 (0)
 -->
<!-- Pages: 1 -->
<svg width="127pt" height="404pt"
 viewBox="0.00 0.00 127.00 404.00" xmlns="http://www.w3.org/2000/svg" xmlns:xlink="http://www.w3.org/1999/xlink">
<g id="graph0" class="graph" transform="scale(1 1) rotate(0) translate(4 400)">
<polygon fill="white" stroke="none" points="-4,4 -4,-400 123,-400 123,4 -4,4"/>
<!-- a -->
<g id="node1" class="node">
<title>a</title>
<ellipse fill="none" stroke="black" cx="92" cy="-378" rx="27" ry="18"/>
<text text-anchor="middle" x="92" y="-373.32" font-family="Times,serif" font-size="14.00">a</text>
</g>
<!-- b -->
<g id="node2" class="node">
<title>b</title>
<ellipse fill="none" stroke="black" cx="65" cy="-306" rx="27" ry="18"/>
<text text-anchor="middle" x="65" y="-301.32" font-family="Times,serif" font-size="14.00">b</text>
</g>
<!-- a&#45;&#45;b -->
<g id="edge1" class="edge">
<title>a&#45;&#45;b</title>
<path fill="none" stroke="red" stroke-width="3" d="M85.46,-360.05C81.22,-349.05 75.71,-334.76 71.48,-323.79"/>
</g>
<!-- d -->
<g id="node4" class="node">
<title>d</title>
<ellipse fill="none" stroke="black" cx="82" cy="-162" rx="27" ry="18"/>
<text text-anchor="middle" x="82" y="-157.32" font-family="Times,serif" font-size="14.00">d</text>
</g>
<!-- a&#45;&#45;d -->
<g id="edge6" class="edge">
<title>a&#45;&#45;d</title>
<path fill="none" stroke="black" d="M95.65,-359.91C97.68,-349.57 99.98,-336.09 101,-324 105.44,-271.27 93.11,-209.16 86.25,-179.88"/>
</g>
<!-- c -->
<g id="node3" class="node">
<title>c</title>
<ellipse fill="none" stroke="black" cx="27" cy="-234" rx="27" ry="18"/>
<text text-anchor="middle" x="27" y="-229.32" font-family="Times,serif" font-size="14.00">c</text>
</g>
<!-- b&#45;&#45;c -->
<g id="edge2" class="edge">
<title>b&#45;&#45;c</title>
<path fill="none" stroke="black" d="M56.19,-288.76C50.05,-277.46 41.89,-262.44 35.77,-251.15"/>
</g>
<!-- b&#45;&#45;d -->
<g id="edge7" class="edge">
<title>b&#45;&#45;d</title>
<path fill="none" stroke="red" stroke-width="3" d="M67.08,-287.59C70.37,-260.19 76.69,-207.32 79.95,-180.11"/>
</g>
<!-- c&#45;&#45;d -->
<g id="edge3" class="edge">
<title>c&#45;&#45;d</title>
<path fill="none" stroke="red" stroke-width="3" d="M39.21,-217.46C48.32,-205.86 60.72,-190.08 69.83,-178.49"/>
</g>
<!-- f -->
<g id="node6" class="node">
<title>f</title>
<ellipse fill="none" stroke="black" cx="54" cy="-18" rx="27" ry="18"/>
<text text-anchor="middle" x="54" y="-13.32" font-family="Times,serif" font-size="14.00">f</text>
</g>
<!-- c&#45;&#45;f -->
<g id="edge8" class="edge">
<title>c&#45;&#45;f</title>
<path fill="none" stroke="red" stroke-width="3" d="M28.87,-215.58C32.08,-186.03 38.99,-124.16 46,-72 47.61,-60.01 49.65,-46.53 51.27,-36.17"/>
</g>
<!-- e -->
<g id="node5" class="node">
<title>e</title>
<ellipse fill="none" stroke="black" cx="82" cy="-90" rx="27" ry="18"/>
<text text-anchor="middle" x="82" y="-85.33" font-family="Times,serif" font-size="14.00">e</text>
</g>
<!-- d&#45;&#45;e -->
<g id="edge4" class="edge">
<title>d&#45;&#45;e</title>
<path fill="none" stroke="black" d="M82,-143.7C82,-132.85 82,-118.92 82,-108.1"/>
</g>
<!-- e&#45;&#45;f -->
<g id="edge5" class="edge">
<title>e&#45;&#45;f</title>
<path fill="none" stroke="black" d="M75.36,-72.41C70.9,-61.25 65.04,-46.6 60.59,-35.47"/>
</g>
</g>
</svg>
