<?xml version="1.0" encoding="UTF-8" standalone="no"?>
<!DOCTYPE svg PUBLIC "-//W3C//DTD SVG 1.1//EN"
 "http://www.w3.org/Graphics/SVG/1.1/DTD/svg11.dtd">
<!-- Generated by graphviz version 10.0.1 (0)
 -->
<!-- Pages: 1 -->
<svg width="134pt" height="332pt"
 viewBox="0.00 0.00 134.00 332.00" xmlns="http://www.w3.org/2000/svg" xmlns:xlink="http://www.w3.org/1999/xlink">
<g id="graph0" class="graph" transform="scale(1 1) rotate(0) translate(4 328)">
<polygon fill="white" stroke="none" points="-4,4 -4,-328 130,-328 130,4 -4,4"/>
<!-- a -->
<g id="node1" class="node">
<title>a</title>
<ellipse fill="none" stroke="black" cx="71" cy="-306" rx="27" ry="18"/>
<text text-anchor="middle" x="71" y="-301.32" font-family="Times,serif" font-size="14.00">a</text>
</g>
<!-- b -->
<g id="node2" class="node">
<title>b</title>
<ellipse fill="none" stroke="black" cx="99" cy="-234" rx="27" ry="18"/>
<text text-anchor="middle" x="99" y="-229.32" font-family="Times,serif" font-size="14.00">b</text>
</g>
<!-- a&#45;&#45;b -->
<g id="edge1" class="edge">
<title>a&#45;&#45;b</title>
<path fill="none" stroke="red" stroke-width="3" d="M77.64,-288.41C82.1,-277.25 87.96,-262.6 92.41,-251.47"/>
</g>
<!-- d -->
<g id="node3" class="node">
<title>d</title>
<ellipse fill="none" stroke="black" cx="44" cy="-162" rx="27" ry="18"/>
<text text-anchor="middle" x="44" y="-157.32" font-family="Times,serif" font-size="14.00">d</text>
</g>
<!-- a&#45;&#45;d -->
<g id="edge8" class="edge">
<title>a&#45;&#45;d</title>
<path fill="none" stroke="black" d="M67.74,-287.87C62.55,-260.58 52.47,-207.52 47.27,-180.19"/>
</g>
<!-- b&#45;&#45;d -->
<g id="edge2" class="edge">
<title>b&#45;&#45;d</title>
<path fill="none" stroke="red" stroke-width="3" d="M86.79,-217.46C77.68,-205.86 65.28,-190.08 56.17,-178.49"/>
</g>
<!-- c -->
<g id="node4" class="node">
<title>c</title>
<ellipse fill="none" stroke="black" cx="99" cy="-90" rx="27" ry="18"/>
<text text-anchor="middle" x="99" y="-85.33" font-family="Times,serif" font-size="14.00">c</text>
</g>
<!-- b&#45;&#45;c -->
<g id="edge5" class="edge">
<title>b&#45;&#45;c</title>
<path fill="none" stroke="black" d="M99,-215.59C99,-188.19 99,-135.32 99,-108.11"/>
</g>
<!-- d&#45;&#45;c -->
<g id="edge3" class="edge">
<title>d&#45;&#45;c</title>
<path fill="none" stroke="red" stroke-width="3" d="M56.21,-145.46C65.32,-133.86 77.72,-118.08 86.83,-106.49"/>
</g>
<!-- e -->
<g id="node6" class="node">
<title>e</title>
<ellipse fill="none" stroke="black" cx="27" cy="-90" rx="27" ry="18"/>
<text text-anchor="middle" x="27" y="-85.33" font-family="Times,serif" font-size="14.00">e</text>
</g>
<!-- d&#45;&#45;e -->
<g id="edge6" class="edge">
<title>d&#45;&#45;e</title>
<path fill="none" stroke="black" d="M39.88,-144.05C37.25,-133.21 33.84,-119.18 31.2,-108.28"/>
</g>
<!-- f -->
<g id="node5" class="node">
<title>f</title>
<ellipse fill="none" stroke="black" cx="63" cy="-18" rx="27" ry="18"/>
<text text-anchor="middle" x="63" y="-13.32" font-family="Times,serif" font-size="14.00">f</text>
</g>
<!-- c&#45;&#45;f -->
<g id="edge4" class="edge">
<title>c&#45;&#45;f</title>
<path fill="none" stroke="red" stroke-width="3" d="M90.65,-72.76C84.83,-61.46 77.11,-46.44 71.3,-35.15"/>
</g>
<!-- e&#45;&#45;f -->
<g id="edge7" class="edge">
<title>e&#45;&#45;f</title>
<path fill="none" stroke="black" d="M35.35,-72.76C41.17,-61.46 48.89,-46.44 54.7,-35.15"/>
</g>
</g>
</svg>
