<?xml version="1.0" encoding="UTF-8" standalone="no"?>
<!DOCTYPE svg PUBLIC "-//W3C//DTD SVG 1.1//EN"
 "http://www.w3.org/Graphics/SVG/1.1/DTD/svg11.dtd">
<!-- Generated by graphviz version 10.0.1 (0)
 -->
<!-- Pages: 1 -->
<svg width="232pt" height="323pt"
 viewBox="0.00 0.00 232.00 322.50" xmlns="http://www.w3.org/2000/svg" xmlns:xlink="http://www.w3.org/1999/xlink">
<g id="graph0" class="graph" transform="scale(1 1) rotate(0) translate(4 318.5)">
<polygon fill="white" stroke="none" points="-4,4 -4,-318.5 228,-318.5 228,4 -4,4"/>
<g id="clust1" class="cluster">
<title>cluster_0</title>
<polygon fill="none" stroke="black" points="8,-8 8,-306.5 108,-306.5 108,-8 8,-8"/>
<text text-anchor="middle" x="58" y="-289.2" font-family="Times,serif" font-size="14.00">Subgraph A</text>
</g>
<g id="clust2" class="cluster">
<title>cluster_1</title>
<polygon fill="none" stroke="black" points="116,-152 116,-229.25 216,-229.25 216,-152 116,-152"/>
<text text-anchor="middle" x="166" y="-211.95" font-family="Times,serif" font-size="14.00">Subgraph B</text>
</g>
<!-- a -->
<g id="node1" class="node">
<title>a</title>
<ellipse fill="none" stroke="black" cx="73" cy="-255.25" rx="27" ry="18"/>
<text text-anchor="middle" x="73" y="-250.57" font-family="Times,serif" font-size="14.00">a</text>
</g>
<!-- b -->
<g id="node2" class="node">
<title>b</title>
<ellipse fill="none" stroke="black" cx="73" cy="-178" rx="27" ry="18"/>
<text text-anchor="middle" x="73" y="-173.32" font-family="Times,serif" font-size="14.00">b</text>
</g>
<!-- a&#45;&gt;b -->
<g id="edge1" class="edge">
<title>a&#45;&gt;b</title>
<path fill="none" stroke="black" d="M73,-236.8C73,-228.15 73,-217.5 73,-207.69"/>
<polygon fill="black" stroke="black" points="76.5,-207.87 73,-197.87 69.5,-207.87 76.5,-207.87"/>
</g>
<!-- f -->
<g id="node5" class="node">
<title>f</title>
<ellipse fill="none" stroke="black" cx="151" cy="-178" rx="27" ry="18"/>
<text text-anchor="middle" x="151" y="-173.32" font-family="Times,serif" font-size="14.00">f</text>
</g>
<!-- a&#45;&gt;f -->
<g id="edge4" class="edge">
<title>a&#45;&gt;f</title>
<path fill="none" stroke="black" d="M93.38,-243.01C99.68,-239.08 106.42,-234.35 112,-229.25 120.06,-221.89 127.7,-212.72 134.06,-204.24"/>
<polygon fill="black" stroke="black" points="136.76,-206.49 139.75,-196.32 131.07,-202.4 136.76,-206.49"/>
</g>
<!-- c -->
<g id="node3" class="node">
<title>c</title>
<ellipse fill="none" stroke="black" cx="73" cy="-106" rx="27" ry="18"/>
<text text-anchor="middle" x="73" y="-101.33" font-family="Times,serif" font-size="14.00">c</text>
</g>
<!-- b&#45;&gt;c -->
<g id="edge2" class="edge">
<title>b&#45;&gt;c</title>
<path fill="none" stroke="black" d="M73,-159.7C73,-152.41 73,-143.73 73,-135.54"/>
<polygon fill="black" stroke="black" points="76.5,-135.62 73,-125.62 69.5,-135.62 76.5,-135.62"/>
</g>
<!-- d -->
<g id="node4" class="node">
<title>d</title>
<ellipse fill="none" stroke="black" cx="73" cy="-34" rx="27" ry="18"/>
<text text-anchor="middle" x="73" y="-29.32" font-family="Times,serif" font-size="14.00">d</text>
</g>
<!-- c&#45;&gt;d -->
<g id="edge3" class="edge">
<title>c&#45;&gt;d</title>
<path fill="none" stroke="black" d="M73,-87.7C73,-80.41 73,-71.73 73,-63.54"/>
<polygon fill="black" stroke="black" points="76.5,-63.62 73,-53.62 69.5,-63.62 76.5,-63.62"/>
</g>
<!-- f&#45;&gt;c -->
<g id="edge5" class="edge">
<title>f&#45;&gt;c</title>
<path fill="none" stroke="black" d="M135.59,-163.17C124.55,-153.26 109.47,-139.73 96.88,-128.43"/>
<polygon fill="black" stroke="black" points="99.55,-126.13 89.77,-122.05 94.88,-131.34 99.55,-126.13"/>
</g>
</g>
</svg>
