<?xml version="1.0" encoding="UTF-8" standalone="no"?>
<!DOCTYPE svg PUBLIC "-//W3C//DTD SVG 1.1//EN"
 "http://www.w3.org/Graphics/SVG/1.1/DTD/svg11.dtd">
<!-- Generated by graphviz version 8.1.0 (0)
 -->
<!-- Pages: 1 -->
<svg width="232pt" height="323pt"
 viewBox="0.00 0.00 232.00 322.50" xmlns="http://www.w3.org/2000/svg" xmlns:xlink="http://www.w3.org/1999/xlink">
<g id="graph0" class="graph" transform="scale(1 1) rotate(0) translate(4 318.5)">
<polygon fill="white" stroke="none" points="-4,4 -4,-318.5 228,-318.5 228,4 -4,4"/>
<g id="clust1" class="cluster">
<title>cluster_0</title>
<polygon fill="none" stroke="black" points="8,-8 8,-306.5 108,-306.5 108,-8 8,-8"/>
<text text-anchor="middle" x="58" y="-289.2" font-family="Times,serif" font-size="14.00">Subgraph A</text>
</g>
<g id="clust2" class="cluster">
<title>cluster_1</title>
<polygon fill="none" stroke="black" points="116,-152 116,-229.25 216,-229.25 216,-152 116,-152"/>
<text text-anchor="middle" x="166" y="-211.95" font-family="Times,serif" font-size="14.00">Subgraph B</text>
</g>
<!-- a -->
<g id="node1" class="node">
<title>a</title>
<ellipse fill="none" stroke="black" cx="73" cy="-255.25" rx="27" ry="18"/>
<text text-anchor="middle" x="73" y="-250.57" font-family="Times,serif" font-size="14.00">a</text>
</g>
<!-- b -->
<g id="node2" class="node">
<title>b</title>
<ellipse fill="none" stroke="black" cx="73" cy="-178" rx="27" ry="18"/>
<text text-anchor="middle" x="73" y="-173.32" font-family="Times,serif" font-size="14.00">b</text>
</g>
<!-- a&#45;&gt;b -->
<g id="edge1" class="edge">
<title>a&#45;&gt;b</title>
<path fill="none" stroke="black" d="M73,-236.8C73,-227.96 73,-217.03 73,-207.05"/>
<polygon fill="black" stroke="black" points="76.5,-207.36 73,-197.36 69.5,-207.36 76.5,-207.36"/>
</g>
<!-- f -->
<g id="node5" class="node">
<title>f</title>
<ellipse fill="none" stroke="black" cx="151" cy="-178" rx="27" ry="18"/>
<text text-anchor="middle" x="151" y="-173.32" font-family="Times,serif" font-size="14.00">f</text>
</g>
<!-- a&#45;&gt;f -->
<g id="edge4" class="edge">
<title>a&#45;&gt;f</title>
<path fill="none" stroke="black" d="M93.38,-243.01C99.68,-239.08 106.42,-234.35 112,-229.25 120.14,-221.81 127.87,-212.53 134.26,-203.97"/>
<polygon fill="black" stroke="black" points="137.64,-206.26 140.63,-196.09 131.96,-202.18 137.64,-206.26"/>
</g>
<!-- c -->
<g id="node3" class="node">
<title>c</title>
<ellipse fill="none" stroke="black" cx="73" cy="-106" rx="27" ry="18"/>
<text text-anchor="middle" x="73" y="-101.33" font-family="Times,serif" font-size="14.00">c</text>
</g>
<!-- b&#45;&gt;c -->
<g id="edge2" class="edge">
<title>b&#45;&gt;c</title>
<path fill="none" stroke="black" d="M73,-159.7C73,-152.24 73,-143.32 73,-134.97"/>
<polygon fill="black" stroke="black" points="76.5,-135.1 73,-125.1 69.5,-135.1 76.5,-135.1"/>
</g>
<!-- d -->
<g id="node4" class="node">
<title>d</title>
<ellipse fill="none" stroke="black" cx="73" cy="-34" rx="27" ry="18"/>
<text text-anchor="middle" x="73" y="-29.32" font-family="Times,serif" font-size="14.00">d</text>
</g>
<!-- c&#45;&gt;d -->
<g id="edge3" class="edge">
<title>c&#45;&gt;d</title>
<path fill="none" stroke="black" d="M73,-87.7C73,-80.24 73,-71.32 73,-62.97"/>
<polygon fill="black" stroke="black" points="76.5,-63.1 73,-53.1 69.5,-63.1 76.5,-63.1"/>
</g>
<!-- f&#45;&gt;c -->
<g id="edge5" class="edge">
<title>f&#45;&gt;c</title>
<path fill="none" stroke="black" d="M135.59,-163.17C124.45,-153.17 109.18,-139.47 96.52,-128.11"/>
<polygon fill="black" stroke="black" points="99.43,-126.11 89.65,-122.04 94.75,-131.32 99.43,-126.11"/>
</g>
</g>
</svg>
